<svg width="40" height="40" viewBox="0 0 40 40" fill="none" xmlns="http://www.w3.org/2000/svg">
<path d="M40 20C40 31.0456 31.0456 40 20 40C8.95556 40 0 31.0456 0 20C0 8.95556 8.95556 0 20 0C31.0456 0 40 8.95556 40 20Z" fill="#FFCC4D"/>
<path d="M12.7778 20C14.3119 20 15.5556 17.264 15.5556 13.8889C15.5556 10.5138 14.3119 7.77778 12.7778 7.77778C11.2437 7.77778 10 10.5138 10 13.8889C10 17.264 11.2437 20 12.7778 20Z" fill="#664500"/>
<path d="M27.2221 20C28.7562 20 29.9999 17.264 29.9999 13.8889C29.9999 10.5138 28.7562 7.77778 27.2221 7.77778C25.688 7.77778 24.4443 10.5138 24.4443 13.8889C24.4443 17.264 25.688 20 27.2221 20Z" fill="#664500"/>
<path d="M19.9996 24.4444C15.974 24.4444 13.3029 23.9755 9.99957 23.3333C9.24512 23.1877 7.77734 23.3333 7.77734 25.5555C7.77734 30 12.8829 35.5555 19.9996 35.5555C27.1151 35.5555 32.2218 30 32.2218 25.5555C32.2218 23.3333 30.754 23.1866 29.9996 23.3333C26.6962 23.9755 24.0251 24.4444 19.9996 24.4444Z" fill="#664500"/>
<path d="M10 25.5556C10 25.5556 13.3333 26.6667 20 26.6667C26.6667 26.6667 30 25.5556 30 25.5556C30 25.5556 27.7778 30 20 30C12.2222 30 10 25.5556 10 25.5556Z" fill="white"/>
</svg>
