<svg width="40" height="40" viewBox="0 0 40 40" fill="none" xmlns="http://www.w3.org/2000/svg">
<path d="M20 40C31.0457 40 40 31.0457 40 20C40 8.9543 31.0457 0 20 0C8.9543 0 0 8.9543 0 20C0 31.0457 8.9543 40 20 40Z" fill="#FFCC4D"/>
<path d="M11.6834 26.2456C11.7334 26.4444 12.9811 31.1111 20 31.1111C27.02 31.1111 28.2667 26.4444 28.3167 26.2456C28.3778 26.0044 28.2689 25.7544 28.0534 25.63C27.8367 25.5067 27.5656 25.5433 27.3867 25.7156C27.3656 25.7367 25.2156 27.7778 20 27.7778C14.7845 27.7778 12.6334 25.7367 12.6134 25.7167C12.5067 25.6111 12.3645 25.5556 12.2222 25.5556C12.1289 25.5556 12.0345 25.5789 11.9489 25.6267C11.7311 25.7511 11.6222 26.0033 11.6834 26.2456Z" fill="#664500"/>
<path d="M13.3334 18.8889C14.8676 18.8889 16.1112 17.1478 16.1112 15C16.1112 12.8522 14.8676 11.1111 13.3334 11.1111C11.7993 11.1111 10.5557 12.8522 10.5557 15C10.5557 17.1478 11.7993 18.8889 13.3334 18.8889Z" fill="#664500"/>
<path d="M26.6669 18.8889C28.2011 18.8889 29.4447 17.1478 29.4447 15C29.4447 12.8522 28.2011 11.1111 26.6669 11.1111C25.1328 11.1111 23.8892 12.8522 23.8892 15C23.8892 17.1478 25.1328 18.8889 26.6669 18.8889Z" fill="#664500"/>
</svg>
