<svg width="40" height="40" viewBox="0 0 40 40" fill="none" xmlns="http://www.w3.org/2000/svg">
<path d="M40 20C40 31.0456 31.0456 40 20 40C8.95556 40 0 31.0456 0 20C0 8.95556 8.95556 0 20 0C31.0456 0 40 8.95556 40 20Z" fill="#FFCC4D"/>
<path d="M19.2357 19.5686C19.0401 19.4097 18.7612 19.4053 18.5579 19.5531C18.5446 19.5631 17.1579 20.5553 14.4446 20.5553C11.7323 20.5553 10.3446 19.5631 10.3334 19.5553C10.1301 19.4031 9.85011 19.4075 9.65455 19.5653C9.45678 19.7231 9.39011 19.9942 9.49233 20.2253C9.559 20.3753 11.159 23.8886 14.4446 23.8886C17.7312 23.8886 19.3301 20.3753 19.3968 20.2253C19.499 19.9953 19.4323 19.7264 19.2357 19.5686ZM30.3468 19.5686C30.1512 19.4097 29.8734 19.4042 29.669 19.5531C29.6557 19.5631 28.2679 20.5553 25.5557 20.5553C22.8446 20.5553 21.4557 19.5631 21.4446 19.5553C21.2412 19.4031 20.9623 19.4075 20.7657 19.5653C20.5679 19.7231 20.5012 19.9942 20.6034 20.2253C20.6701 20.3753 22.2701 23.8886 25.5557 23.8886C28.8423 23.8886 30.4412 20.3753 30.5079 20.2253C30.6101 19.9953 30.5434 19.7264 30.3468 19.5686ZM24.4446 31.1108H15.5557C14.9423 31.1108 14.4446 30.6142 14.4446 29.9997C14.4446 29.3853 14.9423 28.8886 15.5557 28.8886H24.4446C25.059 28.8886 25.5557 29.3853 25.5557 29.9997C25.5557 30.6142 25.059 31.1108 24.4446 31.1108ZM6.66678 15.5553C6.05344 15.5553 5.55566 15.0575 5.55566 14.4442C5.55566 13.8319 6.05011 13.3353 6.66233 13.3331C6.83566 13.3308 10.6279 13.2375 13.5568 9.33306C13.9246 8.84417 14.6201 8.74195 15.1123 9.11084C15.6034 9.47861 15.7023 10.1753 15.3346 10.6664C11.709 15.4997 6.87122 15.5553 6.66678 15.5553ZM33.3334 15.5553C33.129 15.5553 28.2923 15.4997 24.6668 10.6664C24.2979 10.1753 24.3979 9.47861 24.889 9.11084C25.379 8.74084 26.0746 8.84195 26.4434 9.33306C29.3779 13.2453 33.1779 13.3319 33.339 13.3331C33.9501 13.3397 34.4434 13.8397 34.4401 14.4497C34.4379 15.0619 33.9446 15.5553 33.3334 15.5553Z" fill="#664500"/>
</svg>
