<svg width="91" height="70" viewBox="0 0 91 70" fill="none" xmlns="http://www.w3.org/2000/svg">
<path fill-rule="evenodd" clip-rule="evenodd" d="M50.7841 49.6581L55.5959 35.1903L26.1346 17.6895L21.1523 32.2586L35.9682 40.958L50.7841 49.6581Z" fill="#999999" fill-opacity="0.5"/>
<path fill-rule="evenodd" clip-rule="evenodd" d="M55.5849 0.376953L70.4015 9.0771L85.2174 17.7765L70.4015 26.4767L55.4144 35.2774L40.769 26.4767L25.9531 17.7765L40.769 9.0771L55.5849 0.376953Z" fill="#643513" fill-opacity="0.5"/>
<path fill-rule="evenodd" clip-rule="evenodd" d="M55.4144 35.2778V69.1161L25.9531 52.0604V35.0781L35.967 40.9582L50.7829 49.6583L55.4144 35.2778Z" fill="#444750" fill-opacity="0.5"/>
<path fill-rule="evenodd" clip-rule="evenodd" d="M25.9542 17.7767L20.1719 17.3996L49.8044 0L55.586 0.377122L40.7701 9.07727L25.9542 17.7767Z" fill="#999999" fill-opacity="0.5"/>
<path fill-rule="evenodd" clip-rule="evenodd" d="M85.2074 18.7779L85.2171 17.7769L84.9308 17.9446L85.2074 18.7779ZM55.4141 35.277V69.116L84.8767 52.0624L85.0472 34.9803L74.8636 40.9601L60.0449 49.6582L55.4141 35.277Z" fill="#444750" fill-opacity="0.5"/>
<path fill-rule="evenodd" clip-rule="evenodd" d="M60.0449 49.658L55.4141 35.2775L84.8753 17.7773L89.6774 32.2584L74.8615 40.9579L60.0449 49.658Z" fill="#999999" fill-opacity="0.5"/>
<path fill-rule="evenodd" clip-rule="evenodd" d="M85.2177 17.7767L91 17.3996L61.3675 0L55.5859 0.377122L70.4018 9.07727L85.2177 17.7767Z" fill="#999999" fill-opacity="0.5"/>
<path fill-rule="evenodd" clip-rule="evenodd" d="M55.5869 23.4535V0.376953L40.771 9.0771L25.9551 17.7765L40.7703 26.4767L45.546 29.2815L55.5869 23.4535Z" fill="#444750" fill-opacity="0.5"/>
<path fill-rule="evenodd" clip-rule="evenodd" d="M55.5859 0.376953V23.4535L65.5672 29.2469L84.876 17.7765L84.9314 17.945L85.2177 17.7765L70.4018 9.0771L55.5859 0.376953Z" fill="#444750" fill-opacity="0.5"/>
<path d="M12.9224 28.9966C5.772 28.9966 0 34.7686 0 41.919C0 49.0694 5.772 54.8414 12.9224 54.8414C20.0728 54.8414 25.8448 49.0694 25.8448 41.919C25.8448 34.7686 20.0728 28.9966 12.9224 28.9966ZM22.3988 41.919C22.3988 43.9004 21.7958 45.7526 20.7189 47.3033L7.53806 34.1225C9.08875 33.0456 10.941 32.4426 12.9224 32.4426C18.1775 32.4426 22.3988 36.7069 22.3988 41.919ZM3.44597 41.919C3.44597 39.9375 4.04901 38.0853 5.12588 36.5346L18.3067 49.7155C16.756 50.7923 14.9038 51.3954 12.9224 51.3954C7.71036 51.3954 3.44597 47.131 3.44597 41.919Z" fill="white" fill-opacity="0.3"/>
</svg>
