<svg width="154" height="21" viewBox="0 0 154 21" fill="none" xmlns="http://www.w3.org/2000/svg">
<path d="M35.8239 8.90909C35.8239 9.98295 35.63 10.911 35.2422 11.6932C34.8544 12.4754 34.3224 13.0786 33.6463 13.5028C32.9702 13.9271 32.1979 14.1392 31.3295 14.1392C30.4612 14.1392 29.6889 13.9271 29.0128 13.5028C28.3366 13.0786 27.8047 12.4754 27.4169 11.6932C27.0291 10.911 26.8352 9.98295 26.8352 8.90909C26.8352 7.83523 27.0291 6.9072 27.4169 6.125C27.8047 5.3428 28.3366 4.73958 29.0128 4.31534C29.6889 3.8911 30.4612 3.67898 31.3295 3.67898C32.1979 3.67898 32.9702 3.8911 33.6463 4.31534C34.3224 4.73958 34.8544 5.3428 35.2422 6.125C35.63 6.9072 35.8239 7.83523 35.8239 8.90909ZM34.6307 8.90909C34.6307 8.02746 34.4832 7.28338 34.1882 6.67685C33.8965 6.07031 33.5005 5.61127 33 5.29972C32.5028 4.98816 31.946 4.83239 31.3295 4.83239C30.7131 4.83239 30.1546 4.98816 29.6541 5.29972C29.157 5.61127 28.7609 6.07031 28.4659 6.67685C28.1742 7.28338 28.0284 8.02746 28.0284 8.90909C28.0284 9.79072 28.1742 10.5348 28.4659 11.1413C28.7609 11.7479 29.157 12.2069 29.6541 12.5185C30.1546 12.83 30.7131 12.9858 31.3295 12.9858C31.946 12.9858 32.5028 12.83 33 12.5185C33.5005 12.2069 33.8965 11.7479 34.1882 11.1413C34.4832 10.5348 34.6307 9.79072 34.6307 8.90909ZM37.5979 16.8636V6.36364H38.7314V7.5767H38.8707C38.9568 7.44413 39.0761 7.27509 39.2286 7.0696C39.3844 6.8608 39.6064 6.67519 39.8948 6.51278C40.1865 6.34706 40.5809 6.2642 41.078 6.2642C41.721 6.2642 42.2878 6.42495 42.7783 6.74645C43.2689 7.06794 43.6517 7.52367 43.9268 8.11364C44.2019 8.7036 44.3394 9.39962 44.3394 10.2017C44.3394 11.0104 44.2019 11.7114 43.9268 12.3047C43.6517 12.8946 43.2705 13.352 42.7833 13.6768C42.2961 13.9983 41.7343 14.1591 41.0979 14.1591C40.6074 14.1591 40.2146 14.0779 39.9197 13.9155C39.6247 13.7498 39.3976 13.5625 39.2386 13.3537C39.0795 13.1416 38.9568 12.9659 38.8707 12.8267H38.7712V16.8636H37.5979ZM38.7513 10.1818C38.7513 10.7585 38.8359 11.2673 39.0049 11.7081C39.1739 12.1456 39.4208 12.4886 39.7457 12.7372C40.0705 12.9825 40.4682 13.1051 40.9388 13.1051C41.4294 13.1051 41.8387 12.9759 42.1668 12.7173C42.4983 12.4555 42.7468 12.1042 42.9126 11.6634C43.0816 11.2192 43.1661 10.7254 43.1661 10.1818C43.1661 9.64489 43.0832 9.16098 42.9175 8.73011C42.7551 8.29593 42.5082 7.95289 42.1768 7.70099C41.8486 7.44579 41.436 7.31818 40.9388 7.31818C40.4616 7.31818 40.0605 7.43916 39.7357 7.68111C39.4109 7.91974 39.1656 8.2545 38.9999 8.68537C38.8342 9.11293 38.7513 9.61174 38.7513 10.1818ZM49.1909 14.1591C48.4551 14.1591 47.8204 13.9967 47.2868 13.6719C46.7565 13.3438 46.3471 12.8864 46.0588 12.2997C45.7737 11.7098 45.6312 11.0237 45.6312 10.2415C45.6312 9.45928 45.7737 8.76989 46.0588 8.1733C46.3471 7.57339 46.7482 7.10606 47.2619 6.77131C47.7789 6.43324 48.3822 6.2642 49.0716 6.2642C49.4693 6.2642 49.862 6.33049 50.2498 6.46307C50.6376 6.59564 50.9906 6.81108 51.3088 7.10938C51.627 7.40436 51.8805 7.79545 52.0694 8.28267C52.2584 8.76989 52.3528 9.36979 52.3528 10.0824V10.5795H46.4664V9.56534H51.1596C51.1596 9.13447 51.0735 8.75 50.9011 8.41193C50.7321 8.07386 50.4901 7.80705 50.1753 7.61151C49.8637 7.41596 49.4958 7.31818 49.0716 7.31818C48.6042 7.31818 48.1999 7.43419 47.8585 7.66619C47.5204 7.89489 47.2602 8.19318 47.078 8.56108C46.8957 8.92898 46.8045 9.32339 46.8045 9.74432V10.4205C46.8045 10.9972 46.9039 11.486 47.1028 11.8871C47.305 12.2848 47.5851 12.5881 47.943 12.7969C48.301 13.0024 48.7169 13.1051 49.1909 13.1051C49.4991 13.1051 49.7775 13.062 50.0261 12.9759C50.278 12.8864 50.4951 12.7538 50.6774 12.5781C50.8597 12.3991 51.0005 12.1771 51.1 11.9119L52.2335 12.2301C52.1142 12.6146 51.9137 12.9527 51.6319 13.2443C51.3502 13.5327 51.0022 13.758 50.5879 13.9205C50.1736 14.0795 49.7079 14.1591 49.1909 14.1591ZM55.1709 9.40625V14H53.9976V6.36364H55.1311V7.55682H55.2306C55.4095 7.16903 55.6813 6.85748 56.0459 6.62216C56.4105 6.38352 56.8811 6.2642 57.4578 6.2642C57.9749 6.2642 58.4273 6.37027 58.8151 6.58239C59.2029 6.79119 59.5045 7.10938 59.7199 7.53693C59.9354 7.96117 60.0431 8.49811 60.0431 9.14773V14H58.8698V9.22727C58.8698 8.62737 58.714 8.16004 58.4024 7.82528C58.0909 7.48722 57.6633 7.31818 57.1198 7.31818C56.7452 7.31818 56.4105 7.39938 56.1155 7.56179C55.8238 7.72419 55.5935 7.96117 55.4245 8.27273C55.2554 8.58428 55.1709 8.96212 55.1709 9.40625ZM65.8446 14V6.36364H67.0179V14H65.8446ZM66.4412 5.09091C66.2125 5.09091 66.0153 5.01302 65.8495 4.85724C65.6871 4.70147 65.6059 4.5142 65.6059 4.29545C65.6059 4.0767 65.6871 3.88944 65.8495 3.73366C66.0153 3.57789 66.2125 3.5 66.4412 3.5C66.6699 3.5 66.8654 3.57789 67.0278 3.73366C67.1935 3.88944 67.2764 4.0767 67.2764 4.29545C67.2764 4.5142 67.1935 4.70147 67.0278 4.85724C66.8654 5.01302 66.6699 5.09091 66.4412 5.09091ZM70.2001 9.40625V14H69.0268V6.36364H70.1604V7.55682H70.2598C70.4388 7.16903 70.7105 6.85748 71.0751 6.62216C71.4397 6.38352 71.9104 6.2642 72.4871 6.2642C73.0041 6.2642 73.4565 6.37027 73.8443 6.58239C74.2321 6.79119 74.5337 7.10938 74.7491 7.53693C74.9646 7.96117 75.0723 8.49811 75.0723 9.14773V14H73.899V9.22727C73.899 8.62737 73.7432 8.16004 73.4317 7.82528C73.1201 7.48722 72.6926 7.31818 72.149 7.31818C71.7745 7.31818 71.4397 7.39938 71.1447 7.56179C70.8531 7.72419 70.6227 7.96117 70.4537 8.27273C70.2846 8.58428 70.2001 8.96212 70.2001 9.40625ZM82.0471 9.40625V14H80.8738V3.81818H82.0471V7.55682H82.1465C82.3255 7.16241 82.594 6.84919 82.9519 6.61719C83.3132 6.38187 83.7938 6.2642 84.3937 6.2642C84.914 6.2642 85.3698 6.36861 85.7609 6.57741C86.152 6.78291 86.4552 7.09943 86.6707 7.52699C86.8894 7.95123 86.9988 8.49148 86.9988 9.14773V14H85.8255V9.22727C85.8255 8.62074 85.6681 8.15175 85.3532 7.82031C85.0416 7.48556 84.6091 7.31818 84.0556 7.31818C83.6711 7.31818 83.3264 7.39938 83.0215 7.56179C82.7199 7.72419 82.4813 7.96117 82.3056 8.27273C82.1333 8.58428 82.0471 8.96212 82.0471 9.40625ZM92.207 14.1591C91.4712 14.1591 90.8365 13.9967 90.3029 13.6719C89.7726 13.3438 89.3632 12.8864 89.0749 12.2997C88.7898 11.7098 88.6473 11.0237 88.6473 10.2415C88.6473 9.45928 88.7898 8.76989 89.0749 8.1733C89.3632 7.57339 89.7643 7.10606 90.278 6.77131C90.795 6.43324 91.3983 6.2642 92.0877 6.2642C92.4854 6.2642 92.8781 6.33049 93.2659 6.46307C93.6537 6.59564 94.0067 6.81108 94.3249 7.10938C94.6431 7.40436 94.8966 7.79545 95.0855 8.28267C95.2744 8.76989 95.3689 9.36979 95.3689 10.0824V10.5795H89.4825V9.56534H94.1757C94.1757 9.13447 94.0896 8.75 93.9172 8.41193C93.7482 8.07386 93.5062 7.80705 93.1914 7.61151C92.8798 7.41596 92.5119 7.31818 92.0877 7.31818C91.6203 7.31818 91.216 7.43419 90.8746 7.66619C90.5365 7.89489 90.2763 8.19318 90.0941 8.56108C89.9118 8.92898 89.8206 9.32339 89.8206 9.74432V10.4205C89.8206 10.9972 89.92 11.486 90.1189 11.8871C90.3211 12.2848 90.6012 12.5881 90.9591 12.7969C91.3171 13.0024 91.733 13.1051 92.207 13.1051C92.5152 13.1051 92.7936 13.062 93.0422 12.9759C93.2941 12.8864 93.5112 12.7538 93.6935 12.5781C93.8758 12.3991 94.0166 12.1771 94.1161 11.9119L95.2496 12.2301C95.1303 12.6146 94.9298 12.9527 94.648 13.2443C94.3663 13.5327 94.0183 13.758 93.604 13.9205C93.1897 14.0795 92.724 14.1591 92.207 14.1591ZM98.187 3.81818V14H97.0137V3.81818H98.187ZM100.196 16.8636V6.36364H101.329V7.5767H101.469C101.555 7.44413 101.674 7.27509 101.827 7.0696C101.982 6.8608 102.204 6.67519 102.493 6.51278C102.785 6.34706 103.179 6.2642 103.676 6.2642C104.319 6.2642 104.886 6.42495 105.376 6.74645C105.867 7.06794 106.25 7.52367 106.525 8.11364C106.8 8.7036 106.937 9.39962 106.937 10.2017C106.937 11.0104 106.8 11.7114 106.525 12.3047C106.25 12.8946 105.869 13.352 105.381 13.6768C104.894 13.9983 104.332 14.1591 103.696 14.1591C103.205 14.1591 102.813 14.0779 102.518 13.9155C102.223 13.7498 101.996 13.5625 101.837 13.3537C101.678 13.1416 101.555 12.9659 101.469 12.8267H101.369V16.8636H100.196ZM101.349 10.1818C101.349 10.7585 101.434 11.2673 101.603 11.7081C101.772 12.1456 102.019 12.4886 102.344 12.7372C102.669 12.9825 103.066 13.1051 103.537 13.1051C104.027 13.1051 104.437 12.9759 104.765 12.7173C105.096 12.4555 105.345 12.1042 105.511 11.6634C105.68 11.2192 105.764 10.7254 105.764 10.1818C105.764 9.64489 105.681 9.16098 105.516 8.73011C105.353 8.29593 105.106 7.95289 104.775 7.70099C104.447 7.44579 104.034 7.31818 103.537 7.31818C103.06 7.31818 102.659 7.43916 102.334 7.68111C102.009 7.91974 101.764 8.2545 101.598 8.68537C101.432 9.11293 101.349 9.61174 101.349 10.1818ZM115.487 14.1591C114.771 14.1591 114.155 13.9901 113.638 13.652C113.121 13.3139 112.723 12.8482 112.444 12.255C112.166 11.6617 112.027 10.9839 112.027 10.2216C112.027 9.44602 112.169 8.7616 112.454 8.16832C112.743 7.57173 113.144 7.10606 113.657 6.77131C114.174 6.43324 114.778 6.2642 115.467 6.2642C116.004 6.2642 116.488 6.36364 116.919 6.5625C117.35 6.76136 117.703 7.03977 117.978 7.39773C118.253 7.75568 118.424 8.1733 118.49 8.65057H117.317C117.227 8.30256 117.028 7.99432 116.72 7.72585C116.415 7.45407 116.004 7.31818 115.487 7.31818C115.03 7.31818 114.629 7.4375 114.284 7.67614C113.942 7.91146 113.676 8.24455 113.483 8.67543C113.295 9.10298 113.2 9.60511 113.2 10.1818C113.2 10.7718 113.293 11.2855 113.478 11.723C113.667 12.1605 113.933 12.5002 114.274 12.7422C114.619 12.9841 115.023 13.1051 115.487 13.1051C115.792 13.1051 116.069 13.0521 116.317 12.946C116.566 12.84 116.776 12.6875 116.949 12.4886C117.121 12.2898 117.244 12.0511 117.317 11.7727H118.49C118.424 12.2235 118.259 12.6295 117.998 12.9908C117.739 13.3487 117.396 13.6338 116.969 13.8459C116.544 14.0547 116.05 14.1591 115.487 14.1591ZM123.267 14.1591C122.531 14.1591 121.896 13.9967 121.363 13.6719C120.832 13.3438 120.423 12.8864 120.135 12.2997C119.85 11.7098 119.707 11.0237 119.707 10.2415C119.707 9.45928 119.85 8.76989 120.135 8.1733C120.423 7.57339 120.824 7.10606 121.338 6.77131C121.855 6.43324 122.458 6.2642 123.147 6.2642C123.545 6.2642 123.938 6.33049 124.326 6.46307C124.713 6.59564 125.066 6.81108 125.385 7.10938C125.703 7.40436 125.956 7.79545 126.145 8.28267C126.334 8.76989 126.429 9.36979 126.429 10.0824V10.5795H120.542V9.56534H125.235C125.235 9.13447 125.149 8.75 124.977 8.41193C124.808 8.07386 124.566 7.80705 124.251 7.61151C123.94 7.41596 123.572 7.31818 123.147 7.31818C122.68 7.31818 122.276 7.43419 121.934 7.66619C121.596 7.89489 121.336 8.19318 121.154 8.56108C120.972 8.92898 120.88 9.32339 120.88 9.74432V10.4205C120.88 10.9972 120.98 11.486 121.179 11.8871C121.381 12.2848 121.661 12.5881 122.019 12.7969C122.377 13.0024 122.793 13.1051 123.267 13.1051C123.575 13.1051 123.853 13.062 124.102 12.9759C124.354 12.8864 124.571 12.7538 124.753 12.5781C124.936 12.3991 125.076 12.1771 125.176 11.9119L126.309 12.2301C126.19 12.6146 125.99 12.9527 125.708 13.2443C125.426 13.5327 125.078 13.758 124.664 13.9205C124.249 14.0795 123.784 14.1591 123.267 14.1591ZM129.247 9.40625V14H128.073V6.36364H129.207V7.55682H129.306C129.485 7.16903 129.757 6.85748 130.122 6.62216C130.486 6.38352 130.957 6.2642 131.534 6.2642C132.051 6.2642 132.503 6.37027 132.891 6.58239C133.279 6.79119 133.58 7.10938 133.796 7.53693C134.011 7.96117 134.119 8.49811 134.119 9.14773V14H132.946V9.22727C132.946 8.62737 132.79 8.16004 132.478 7.82528C132.167 7.48722 131.739 7.31818 131.196 7.31818C130.821 7.31818 130.486 7.39938 130.191 7.56179C129.9 7.72419 129.669 7.96117 129.5 8.27273C129.331 8.58428 129.247 8.96212 129.247 9.40625ZM139.444 6.36364V7.35795H135.487V6.36364H139.444ZM136.64 4.53409H137.813V11.8125C137.813 12.1439 137.861 12.3925 137.957 12.5582C138.057 12.7206 138.183 12.83 138.335 12.8864C138.491 12.9394 138.655 12.9659 138.827 12.9659C138.957 12.9659 139.063 12.9593 139.146 12.946C139.229 12.9295 139.295 12.9162 139.345 12.9062L139.583 13.9602C139.504 13.9901 139.393 14.0199 139.25 14.0497C139.108 14.0829 138.927 14.0994 138.708 14.0994C138.377 14.0994 138.052 14.0282 137.734 13.8857C137.419 13.7431 137.157 13.526 136.948 13.2344C136.743 12.9427 136.64 12.5748 136.64 12.1307V4.53409ZM144.189 14.1591C143.453 14.1591 142.818 13.9967 142.284 13.6719C141.754 13.3438 141.345 12.8864 141.056 12.2997C140.771 11.7098 140.629 11.0237 140.629 10.2415C140.629 9.45928 140.771 8.76989 141.056 8.1733C141.345 7.57339 141.746 7.10606 142.26 6.77131C142.777 6.43324 143.38 6.2642 144.069 6.2642C144.467 6.2642 144.86 6.33049 145.247 6.46307C145.635 6.59564 145.988 6.81108 146.306 7.10938C146.625 7.40436 146.878 7.79545 147.067 8.28267C147.256 8.76989 147.35 9.36979 147.35 10.0824V10.5795H141.464V9.56534H146.157C146.157 9.13447 146.071 8.75 145.899 8.41193C145.73 8.07386 145.488 7.80705 145.173 7.61151C144.861 7.41596 144.493 7.31818 144.069 7.31818C143.602 7.31818 143.198 7.43419 142.856 7.66619C142.518 7.89489 142.258 8.19318 142.076 8.56108C141.893 8.92898 141.802 9.32339 141.802 9.74432V10.4205C141.802 10.9972 141.902 11.486 142.1 11.8871C142.303 12.2848 142.583 12.5881 142.941 12.7969C143.299 13.0024 143.715 13.1051 144.189 13.1051C144.497 13.1051 144.775 13.062 145.024 12.9759C145.276 12.8864 145.493 12.7538 145.675 12.5781C145.857 12.3991 145.998 12.1771 146.098 11.9119L147.231 12.2301C147.112 12.6146 146.911 12.9527 146.63 13.2443C146.348 13.5327 146 13.758 145.586 13.9205C145.171 14.0795 144.706 14.1591 144.189 14.1591ZM148.995 14V6.36364H150.129V7.51705H150.208C150.348 7.1392 150.599 6.83262 150.964 6.5973C151.329 6.36198 151.74 6.24432 152.197 6.24432C152.283 6.24432 152.391 6.24597 152.52 6.24929C152.649 6.2526 152.747 6.25758 152.813 6.2642V7.45739C152.774 7.44744 152.683 7.43253 152.54 7.41264C152.401 7.38944 152.253 7.37784 152.098 7.37784C151.726 7.37784 151.395 7.45573 151.103 7.61151C150.815 7.76397 150.586 7.97609 150.417 8.24787C150.251 8.51634 150.169 8.82292 150.169 9.16761V14H148.995Z" fill="#605F70"/>
<path d="M10 20C14.9706 20 19 15.9706 19 11C19 6.02944 14.9706 2 10 2C5.02944 2 1 6.02944 1 11C1 15.9706 5.02944 20 10 20Z" stroke="#2960ED" stroke-width="2" stroke-linecap="round" stroke-linejoin="round"/>
<path d="M7.37891 8.29986C7.5905 7.69836 8.00814 7.19115 8.55787 6.86807C9.10759 6.545 9.75391 6.4269 10.3824 6.5347C11.0108 6.64249 11.5808 6.96923 11.9915 7.45703C12.4021 7.94483 12.6269 8.56223 12.6259 9.19986C12.6259 10.9999 9.92591 11.8999 9.92591 11.8999" stroke="#2960ED" stroke-width="2" stroke-linecap="round" stroke-linejoin="round"/>
<path d="M10 15.5H10.009" stroke="#2960ED" stroke-width="2" stroke-linecap="round" stroke-linejoin="round"/>
</svg>
