<svg width="43" height="48" viewBox="0 0 43 48" fill="none" xmlns="http://www.w3.org/2000/svg">
<path d="M41.8125 15C42.4313 15 42.9375 14.4937 42.9375 13.875V10.125C42.9375 9.50625 42.4313 9 41.8125 9H39.9375V4.5C39.9375 2.01562 37.9219 0 35.4375 0H5.4375C2.95312 0 0.9375 2.01562 0.9375 4.5V43.5C0.9375 45.9844 2.95312 48 5.4375 48H35.4375C37.9219 48 39.9375 45.9844 39.9375 43.5V39H41.8125C42.4313 39 42.9375 38.4938 42.9375 37.875V34.125C42.9375 33.5062 42.4313 33 41.8125 33H39.9375V27H41.8125C42.4313 27 42.9375 26.4937 42.9375 25.875V22.125C42.9375 21.5063 42.4313 21 41.8125 21H39.9375V15H41.8125ZM20.4375 12C23.7469 12 26.4375 14.6906 26.4375 18C26.4375 21.3094 23.7469 24 20.4375 24C17.1281 24 14.4375 21.3094 14.4375 18C14.4375 14.6906 17.1281 12 20.4375 12ZM30.9375 34.2C30.9375 35.1937 30 36 28.8375 36H12.0375C10.875 36 9.9375 35.1937 9.9375 34.2V32.4C9.9375 29.4188 12.7594 27 16.2375 27H16.7062C17.8594 27.4781 19.1156 27.75 20.4375 27.75C21.7594 27.75 23.025 27.4781 24.1688 27H24.6375C28.1156 27 30.9375 29.4188 30.9375 32.4V34.2Z" fill="#605F70"/>
</svg>
