<svg width="46" height="53" viewBox="0 0 46 53" fill="none" xmlns="http://www.w3.org/2000/svg">
<path d="M42.4095 26.286C46.53 20.6499 46.6717 16.1597 44.9909 13.143C43.8706 11.1387 40.8282 7.93405 33.0462 8.84276C30.8406 3.58249 27.4809 0 23 0C18.5191 0 15.1594 3.58249 12.9538 8.84276C5.17791 7.94124 2.12833 11.1387 1.00913 13.143C-0.672765 16.1618 -0.531068 20.6478 3.59049 26.286C-0.530041 31.922 -0.671739 36.4122 1.00913 39.4289C4.00839 44.8032 11.4496 43.9037 12.9538 43.7292C15.1584 48.9884 18.5191 52.5719 23 52.5719C27.4809 52.5719 30.8416 48.9884 33.0462 43.7292C34.5494 43.9037 41.9906 44.8032 44.9909 39.4289C46.6728 36.4102 46.5311 31.9241 42.4095 26.286ZM6.50761 36.1432C6.09382 35.4029 6.4881 33.5967 8.04267 31.1848C8.75732 31.8553 9.50072 32.5083 10.2883 33.1542C10.4639 34.5619 10.699 35.9348 10.9824 37.2696C8.46058 37.361 6.8865 36.8209 6.50761 36.1432ZM10.2883 19.4188C9.50175 20.0646 8.75835 20.7176 8.04267 21.3881C6.48913 18.9752 6.09484 17.169 6.50761 16.4287C6.85775 15.7983 8.19053 15.251 10.4012 15.251C10.5768 15.251 10.7986 15.2818 10.9855 15.289C10.6937 16.6549 10.4611 18.0328 10.2883 19.4188ZM23 6.57149C23.9724 6.57149 25.2795 7.95972 26.4767 10.3973C25.3277 10.7772 24.1726 11.2188 23 11.7178C21.8274 11.2188 20.6723 10.7772 19.5233 10.3973C20.7205 7.95972 22.0276 6.57149 23 6.57149ZM23 46.0004C22.0276 46.0004 20.7205 44.6122 19.5233 42.1746C20.6723 41.7947 21.8274 41.3532 23 40.8541C24.1726 41.3532 25.3277 41.7947 26.4767 42.1746C25.2795 44.6122 23.9724 46.0004 23 46.0004ZM29.4175 29.8459C26.6759 31.805 24.6798 32.8574 23 33.6943C21.3212 32.8585 19.3241 31.804 16.5825 29.8459C16.3782 26.9924 16.3782 25.5806 16.5825 22.7271C19.321 20.771 21.3191 19.7165 23 18.8787C24.6829 19.7176 26.6821 20.7721 29.4175 22.7271C29.6208 25.5795 29.6218 26.9914 29.4175 29.8459ZM39.4924 36.1432C39.1156 36.8229 37.5415 37.3569 35.0176 37.2675C35.301 35.9327 35.5361 34.5599 35.7117 33.1542C36.4982 32.5083 37.2417 31.8553 37.9573 31.1848C39.5109 33.5967 39.9052 35.4029 39.4924 36.1432ZM37.9573 21.3871C37.2427 20.7166 36.4993 20.0636 35.7117 19.4177C35.5387 18.0318 35.3061 16.6539 35.0145 15.288C35.2014 15.2808 35.4222 15.25 35.5988 15.25C37.8084 15.25 39.1423 15.7983 39.4924 16.4277C39.9052 17.169 39.5109 18.9752 37.9573 21.3871ZM23 23.0002C21.1857 23.0002 19.7143 24.4716 19.7143 26.286C19.7143 28.1003 21.1857 29.5717 23 29.5717C24.8143 29.5717 26.2857 28.1003 26.2857 26.286C26.2857 24.4716 24.8143 23.0002 23 23.0002Z" fill="#605F70"/>
</svg>
