<svg width="60" height="60" viewBox="0 0 60 60" fill="none" xmlns="http://www.w3.org/2000/svg">
<path d="M30.0067 14.6135C21.4936 14.6135 14.6269 21.4802 14.6269 29.9933C14.6269 38.5064 21.4936 45.3731 30.0067 45.3731C38.5198 45.3731 45.3865 38.5064 45.3865 29.9933C45.3865 21.4802 38.5198 14.6135 30.0067 14.6135ZM30.0067 39.9922C24.5053 39.9922 20.0078 35.5081 20.0078 29.9933C20.0078 24.4785 24.4919 19.9944 30.0067 19.9944C35.5215 19.9944 40.0056 24.4785 40.0056 29.9933C40.0056 35.5081 35.5081 39.9922 30.0067 39.9922ZM49.6029 13.9844C49.6029 15.9788 47.9967 17.5717 46.0156 17.5717C44.0212 17.5717 42.4283 15.9654 42.4283 13.9844C42.4283 12.0033 44.0346 10.3971 46.0156 10.3971C47.9967 10.3971 49.6029 12.0033 49.6029 13.9844ZM59.7892 17.6252C59.5616 12.8199 58.464 8.5633 54.9437 5.05633C51.4367 1.54936 47.1801 0.451757 42.3748 0.21082C37.4222 -0.0702733 22.5778 -0.0702733 17.6252 0.21082C12.8332 0.438371 8.57669 1.53597 5.05633 5.04294C1.53597 8.54992 0.451757 12.8065 0.21082 17.6118C-0.0702733 22.5644 -0.0702733 37.4088 0.21082 42.3614C0.438371 47.1668 1.53597 51.4233 5.05633 54.9303C8.57669 58.4373 12.8199 59.5349 17.6252 59.7758C22.5778 60.0569 37.4222 60.0569 42.3748 59.7758C47.1801 59.5482 51.4367 58.4506 54.9437 54.9303C58.4506 51.4233 59.5482 47.1668 59.7892 42.3614C60.0703 37.4088 60.0703 22.5778 59.7892 17.6252ZM53.391 47.6754C52.3469 50.2989 50.3257 52.3201 47.6888 53.3776C43.7401 54.9437 34.3703 54.5823 30.0067 54.5823C25.6431 54.5823 16.2599 54.9303 12.3246 53.3776C9.70106 52.3335 7.67987 50.3123 6.62242 47.6754C5.05633 43.7267 5.41774 34.3569 5.41774 29.9933C5.41774 25.6297 5.06972 16.2465 6.62242 12.3112C7.66648 9.68767 9.68767 7.66648 12.3246 6.60904C16.2733 5.04294 25.6431 5.40435 30.0067 5.40435C34.3703 5.40435 43.7535 5.05633 47.6888 6.60904C50.3123 7.6531 52.3335 9.67429 53.391 12.3112C54.9571 16.2599 54.5957 25.6297 54.5957 29.9933C54.5957 34.3569 54.9571 43.7401 53.391 47.6754Z" fill="#AD8605"/>
</svg>
