<svg width="27" height="31" viewBox="0 0 27 31" fill="none" xmlns="http://www.w3.org/2000/svg">
<path d="M24.0948 13.4889H22.7032V9.31389C22.7032 4.45465 18.7485 0.5 13.8893 0.5C9.03004 0.5 5.07539 4.45465 5.07539 9.31389V13.4889H3.68372C2.14709 13.4889 0.900391 14.7356 0.900391 16.2722V27.4056C0.900391 28.9422 2.14709 30.1889 3.68372 30.1889H24.0948C25.6315 30.1889 26.8782 28.9422 26.8782 27.4056V16.2722C26.8782 14.7356 25.6315 13.4889 24.0948 13.4889ZM18.0643 13.4889H9.71428V9.31389C9.71428 7.01184 11.5872 5.13889 13.8893 5.13889C16.1913 5.13889 18.0643 7.01184 18.0643 9.31389V13.4889Z" fill="#605F70"/>
</svg>
