<svg width="47" height="48" viewBox="0 0 47 48" fill="none" xmlns="http://www.w3.org/2000/svg">
<path d="M46.01 40.9099L36.9769 31.8767C36.5692 31.469 36.0165 31.2425 35.4366 31.2425H33.9598C36.4604 28.0442 37.9463 24.0214 37.9463 19.6453C37.9463 9.23497 29.5112 0.799805 19.1009 0.799805C8.69054 0.799805 0.255371 9.23497 0.255371 19.6453C0.255371 30.0556 8.69054 38.4908 19.1009 38.4908C23.477 38.4908 27.4998 37.0049 30.6981 34.5042V35.9811C30.6981 36.5609 30.9246 37.1136 31.3323 37.5213L40.3654 46.5545C41.2171 47.4061 42.5943 47.4061 43.4369 46.5545L46.001 43.9904C46.8526 43.1387 46.8526 41.7616 46.01 40.9099ZM19.1009 31.2425C12.6952 31.2425 7.50363 26.06 7.50363 19.6453C7.50363 13.2396 12.6861 8.04807 19.1009 8.04807C25.5065 8.04807 30.6981 13.2306 30.6981 19.6453C30.6981 26.0509 25.5156 31.2425 19.1009 31.2425Z" fill="#878787"/>
</svg>
