<svg width="59" height="59" viewBox="0 0 59 59" fill="none" xmlns="http://www.w3.org/2000/svg">
<path d="M29.5 0C13.2036 0 0 13.2036 0 29.5C0 45.7964 13.2036 59 29.5 59C45.7964 59 59 45.7964 59 29.5C59 13.2036 45.7964 0 29.5 0ZM43.9883 20.2099L39.147 43.0248C38.7901 44.6425 37.8266 45.0351 36.4825 44.2738L29.1075 38.8377L25.5508 42.2635C25.1583 42.656 24.8252 42.9891 24.0639 42.9891L24.5873 35.4833L38.2548 23.1361C38.8496 22.6127 38.124 22.3153 37.3389 22.8387L20.4478 33.473L13.1679 31.201C11.5859 30.7014 11.5502 29.619 13.501 28.8577L41.9423 17.8903C43.2627 17.4145 44.4165 18.2115 43.9883 20.2099Z" fill="#D04B21"/>
</svg>
