<svg width="89" height="47" viewBox="0 0 89 89" fill="none" xmlns="http://www.w3.org/2000/svg">
<path d="M88.3065 44.2421C88.3065 68.4369 68.6928 88.0506 44.498 88.0506C20.3031 88.0506 0.689453 68.4369 0.689453 44.2421C0.689453 20.0473 20.3031 0.433594 44.498 0.433594C68.6928 0.433594 88.3065 20.0473 88.3065 44.2421ZM63.2842 38.0012C64.1563 32.172 59.7175 29.0383 53.6481 26.9478L55.617 19.0513L50.8099 17.8535L48.8931 25.5419C47.6294 25.2269 46.3314 24.93 45.0417 24.6357L46.9723 16.8968L42.1678 15.6989L40.1977 23.5926C39.1516 23.3543 38.1247 23.1188 37.1281 22.8711L37.1335 22.8464L30.504 21.1912L29.2252 26.325C29.2252 26.325 32.7919 27.1423 32.7167 27.1928C34.6637 27.6788 35.0155 28.9671 34.9565 29.9883L32.7138 38.984C32.8481 39.0183 33.0219 39.0676 33.2136 39.1442C33.0533 39.1045 32.8822 39.0607 32.7055 39.0183L29.5619 51.6199C29.3236 52.2114 28.7198 53.0985 27.3589 52.7618C27.4068 52.8316 23.8649 51.8897 23.8649 51.8897L21.4784 57.3917L27.7341 58.951C28.8979 59.2426 30.0385 59.5479 31.1611 59.8353L29.1717 67.822L33.9733 69.0199L35.9435 61.1179C37.2168 61.463 38.4939 61.7944 39.7744 62.1119L37.811 69.9768L42.6181 71.1746L44.6075 63.2029C52.8046 64.754 58.9687 64.1283 61.5631 56.7152C63.6539 50.7462 61.4591 47.3032 57.1463 45.058C60.287 44.3341 62.6531 42.2684 63.2842 38.0012ZM52.3008 53.4011C50.8152 59.37 40.7643 56.1432 37.5057 55.3341L40.1455 44.7531C43.404 45.5662 53.8534 47.1762 52.3008 53.4011ZM53.7877 37.915C52.4322 43.3444 44.0666 40.5859 41.3529 39.9096L43.7462 30.3129C46.46 30.9891 55.1992 32.2513 53.7877 37.915Z" fill="#AD8605"/>
</svg>
