<svg width="53" height="57" viewBox="0 0 53 57" fill="none" xmlns="http://www.w3.org/2000/svg">
<path d="M11.7906 23.9676L0.187338 41.1049C-0.151252 41.6545 0.198331 42.3691 0.839233 42.4394L23.7336 44.8656L11.7906 23.9676ZM0.870014 35.0014L9.14677 21.5513L0.721606 16.4966C0.428088 16.3207 0.0554199 16.5318 0.0554199 16.8737V34.7717C0.0554199 35.2147 0.636959 35.3796 0.870014 35.0014ZM2.06167 46.8928L23.4324 56.5294C24.015 56.7987 24.6801 56.3722 24.6801 55.7313V48.5121L2.30352 46.0606C1.81433 46.0056 1.61865 46.6751 2.06167 46.8928ZM10.9903 18.5546L19.7772 2.84092C20.2543 2.0648 19.3825 1.16446 18.5921 1.61628L2.0133 12.4566C1.74177 12.6347 1.75057 13.0349 2.0276 13.202L10.9903 18.5546ZM26.439 19.6737H38.4447L27.9374 1.16336C27.5933 0.60491 27.0162 0.325684 26.439 0.325684C25.8619 0.325684 25.2847 0.60491 24.9407 1.16336L14.4334 19.6737H26.439ZM52.1565 16.4966L43.7313 21.5524L52.0081 35.0025C52.24 35.3807 52.8226 35.2158 52.8226 34.7717V16.8737C52.8226 16.5318 52.45 16.3207 52.1565 16.4966ZM41.8877 18.5546L50.8505 13.2009C51.1286 13.0338 51.1363 12.6336 50.8648 12.4555L34.286 1.61628C33.4956 1.16446 32.6238 2.0648 33.1009 2.84092L41.8877 18.5546ZM50.5745 46.0606L28.1979 48.511V55.7302C28.1979 56.3722 28.863 56.7976 29.4457 56.5283L50.8164 46.8917C51.2594 46.6751 51.0637 46.0056 50.5745 46.0606ZM41.0874 23.9676L29.1456 44.8656L52.0399 42.4394C52.6808 42.368 53.0304 41.6545 52.6918 41.1049L41.0874 23.9676ZM26.439 23.1915H15.3986L26.439 42.512L37.4795 23.1915H26.439Z" fill="white"/>
</svg>
