<svg width="81" height="80" viewBox="0 0 81 80" fill="none" xmlns="http://www.w3.org/2000/svg">
<path d="M58.2422 54.1001C58.2422 52.4432 59.5853 51.1001 61.2422 51.1001H77.2706C78.9274 51.1001 80.2706 52.4432 80.2706 54.1001V72.0425H58.2422V54.1001Z" fill="#A29A9A"/>
<line x1="0.277344" y1="77.5" x2="80.2773" y2="77.5" stroke="#A29A9A" stroke-width="5"/>
<path d="M0.277344 2.99999C0.277344 1.34314 1.62049 0 3.27734 0H19.3057C20.9626 0 22.3058 1.34315 22.3058 3V72.0419H0.277344V2.99999Z" fill="#A29A9A"/>
<path d="M29.2656 33.9937C29.2656 32.3368 30.6088 30.9937 32.2656 30.9937H48.294C49.9509 30.9937 51.294 32.3368 51.294 33.9937V72.0408H29.2656V33.9937Z" fill="#A29A9A"/>
</svg>
