<svg width="48" height="47" viewBox="0 0 48 47" fill="none" xmlns="http://www.w3.org/2000/svg">
<path d="M30.8476 0C21.9165 0 14.6893 2.58532 14.6893 5.87573V11.7515C5.87573 12.0453 0 14.5131 0 17.6272V35.2544C0 38.4567 7.22715 41.1301 16.1583 41.1301H16.3551C18.5056 41.1301 20.615 40.9686 22.6803 40.6601C24.731 44.494 28.8322 47 33.5211 47C36.3388 46.9998 39.0786 46.0752 41.3203 44.3679C43.5619 42.6607 45.1815 40.2652 45.9306 37.5489C46.5446 36.9642 46.9412 36.2503 47.0088 35.4424V5.87573C47.0088 2.58532 39.7817 0 30.8505 0H30.8476ZM16.1583 14.6893C23.5029 14.6893 29.3787 16.0114 29.3787 17.6272C29.3787 19.243 23.5029 20.5651 16.1583 20.5651C8.8136 20.5651 2.93787 19.243 2.93787 17.6272C2.93787 16.0114 8.8136 14.6893 16.1583 14.6893ZM16.1583 38.1923C8.19665 38.1923 3.67233 36.1064 2.93787 35.2544V32.9041C7.13614 34.6662 11.675 35.4682 16.2229 35.2515C17.7153 35.2485 19.2489 35.1633 20.759 35.0017C20.6326 36.0917 20.8236 37.0935 21.1203 38.0483C19.7924 38.11 18.2794 38.1981 16.7488 38.1981L16.1289 38.1923H16.1583ZM20.7707 32.0521C19.3987 32.2196 17.8094 32.3165 16.1994 32.3165H16.1583C8.19959 32.3165 3.67527 30.2307 2.94081 29.3787V26.9109C7.12616 28.712 11.6611 29.5551 16.2141 29.3787C18.078 29.3754 19.9397 29.2498 21.7872 29.0026C21.2085 29.9016 20.9323 30.924 20.7825 31.9846L20.7707 32.0521ZM16.1583 26.4408C8.19665 26.4408 3.67233 24.3549 2.93787 23.5029V20.8589C7.12322 22.6599 11.6581 23.5031 16.2112 23.3267C20.8014 23.4799 25.3682 22.6108 29.5814 20.7825L29.3816 21.8577C27.1763 22.5995 25.2122 23.9231 23.6968 25.6887C21.4876 26.1735 18.9639 26.4408 16.3786 26.4408H16.1524H16.1583ZM33.5211 44.068C30.8641 44.068 28.3159 43.0125 26.4372 41.1338C24.5584 39.255 23.5029 36.7069 23.5029 34.0499C23.5029 31.3929 24.5584 28.8448 26.4372 26.966C28.3159 25.0872 30.8641 24.0318 33.5211 24.0318C36.178 24.0318 38.7262 25.0872 40.6049 26.966C42.4837 28.8448 43.5392 31.3929 43.5392 34.0499C43.5392 36.7069 42.4837 39.255 40.6049 41.1338C38.7262 43.0125 36.178 44.068 33.5211 44.068ZM44.068 23.5029C43.5539 23.9936 42.9369 24.3843 42.2553 24.637C41.4092 23.9201 40.4926 23.2855 39.4996 22.7743C41.1218 22.3541 42.6917 21.753 44.1796 20.9822L44.068 23.5029ZM44.068 17.6272C43.3629 18.5379 39.338 20.3888 32.3165 20.5651V17.6272H32.3489C36.4501 17.6334 40.5068 16.7776 44.256 15.1153L44.068 17.6272ZM44.068 11.7515C43.3335 12.721 38.8092 14.6893 30.8476 14.6893H30.1719C26.3826 12.7457 22.1827 11.7383 17.9239 11.7515H17.6272V9.10739C21.8126 10.9085 26.3475 11.7516 30.9005 11.5752C35.4907 11.7284 40.0576 10.8594 44.2707 9.031L44.0709 11.7515H44.068ZM30.8476 8.8136C23.5029 8.8136 17.6272 7.49156 17.6272 5.87573C17.6272 4.25991 23.5029 2.93787 30.8476 2.93787C38.1923 2.93787 44.068 4.25991 44.068 5.87573C44.068 7.49156 38.1923 8.8136 30.8476 8.8136Z" fill="#F4D149"/>
</svg>
