<svg width="86" height="82" viewBox="0 0 86 82" fill="none" xmlns="http://www.w3.org/2000/svg">
<path d="M38.7984 7.5957L9.23828 64.1075" stroke="#A29A9A" stroke-width="3.07625"/>
<path d="M45.8344 7.5957L75.3945 64.1075" stroke="#A29A9A" stroke-width="3.07625"/>
<path d="M7.12485 72.3506L3.27734 80.0004H36.3565" stroke="#A29A9A" stroke-width="3.07625"/>
<path d="M79.4298 72.3506L83.2773 80.0004H50.1982" stroke="#A29A9A" stroke-width="3.07625"/>
<mask id="path-5-inside-1_2608_3010" fill="white">
<ellipse cx="3.33138" cy="3.82492" rx="3.33138" ry="3.82492" transform="matrix(-1 0 0 1 46.7734 45.6836)"/>
</mask>
<path d="M46.2632 49.5085C46.2632 49.1261 46.129 48.6351 45.7259 48.1723C45.3121 47.6971 44.5199 47.1809 43.4421 47.1809V59.4859C37.4336 59.4859 33.9582 54.1932 33.9582 49.5085H46.2632ZM43.4421 47.1809C42.3642 47.1809 41.5721 47.6971 41.1582 48.1723C40.7551 48.6351 40.6209 49.1261 40.6209 49.5085H52.9259C52.9259 54.1932 49.4506 59.4859 43.4421 59.4859V47.1809ZM40.6209 49.5085C40.6209 49.8909 40.7551 50.3819 41.1582 50.8447C41.5721 51.3199 42.3642 51.8361 43.4421 51.8361V39.5311C49.4506 39.5311 52.9259 44.8238 52.9259 49.5085H40.6209ZM43.4421 51.8361C44.5199 51.8361 45.3121 51.3199 45.7259 50.8447C46.129 50.3819 46.2632 49.8909 46.2632 49.5085H33.9582C33.9582 44.8238 37.4336 39.5311 43.4421 39.5311V51.8361Z" fill="#A29A9A" mask="url(#path-5-inside-1_2608_3010)"/>
<mask id="path-7-inside-2_2608_3010" fill="white">
<ellipse cx="3.33138" cy="3.82492" rx="3.33138" ry="3.82492" transform="matrix(-1 0 0 1 36.3555 24.3496)"/>
</mask>
<path d="M35.8452 28.1745C35.8452 27.7922 35.711 27.3011 35.3079 26.8383C34.8941 26.3632 34.1019 25.8469 33.0241 25.8469V38.1519C27.0156 38.1519 23.5402 32.8592 23.5402 28.1745H35.8452ZM33.0241 25.8469C31.9462 25.8469 31.1541 26.3632 30.7402 26.8383C30.3372 27.3011 30.203 27.7922 30.203 28.1745H42.508C42.508 32.8592 39.0326 38.1519 33.0241 38.1519V25.8469ZM30.203 28.1745C30.203 28.5569 30.3372 29.048 30.7402 29.5107C31.1541 29.9859 31.9462 30.5021 33.0241 30.5021V18.1971C39.0326 18.1971 42.508 23.4898 42.508 28.1745H30.203ZM33.0241 30.5021C34.1019 30.5021 34.8941 29.9859 35.3079 29.5107C35.711 29.048 35.8452 28.5569 35.8452 28.1745H23.5402C23.5402 23.4898 27.0156 18.1971 33.0241 18.1971V30.5021Z" fill="#A29A9A" mask="url(#path-7-inside-2_2608_3010)"/>
<ellipse cx="42.5512" cy="20.4713" rx="0.469208" ry="0.538721" fill="#A29A9A"/>
<ellipse cx="42.5033" cy="3.82492" rx="3.33138" ry="3.82492" fill="#A29A9A"/>
<ellipse cx="15.5724" cy="71.1647" rx="6.14663" ry="7.05724" fill="#A29A9A"/>
<ellipse cx="33.588" cy="71.1647" rx="6.14663" ry="7.05724" fill="#A29A9A"/>
<ellipse cx="26.0802" cy="49.401" rx="6.14663" ry="7.05724" fill="#A29A9A"/>
<ellipse cx="6.14663" cy="7.05724" rx="6.14663" ry="7.05724" transform="matrix(-1 0 0 1 64.8828 42.3438)" fill="#A29A9A"/>
<ellipse cx="6.14663" cy="7.05724" rx="6.14663" ry="7.05724" transform="matrix(-1 0 0 1 53.9062 21.0098)" fill="#A29A9A"/>
<ellipse cx="51.6037" cy="71.1647" rx="6.14663" ry="7.05724" fill="#A29A9A"/>
<ellipse cx="69.6232" cy="71.1647" rx="6.14663" ry="7.05724" fill="#A29A9A"/>
</svg>
