<svg width="60" height="20" viewBox="0 0 60 60" fill="none" xmlns="http://www.w3.org/2000/svg">
<circle cx="30.0776" cy="29.7446" r="29.6889" fill="#353341"/>
<path d="M40.2831 27.8888H38.8914V23.7138C38.8914 18.8546 34.9367 14.8999 30.0775 14.8999C25.2183 14.8999 21.2636 18.8546 21.2636 23.7138V27.8888H19.872C18.3353 27.8888 17.0886 29.1355 17.0886 30.6721V41.8055C17.0886 43.3421 18.3353 44.5888 19.872 44.5888H40.2831C41.8197 44.5888 43.0664 43.3421 43.0664 41.8055V30.6721C43.0664 29.1355 41.8197 27.8888 40.2831 27.8888ZM34.2525 27.8888H25.9025V23.7138C25.9025 21.4117 27.7755 19.5388 30.0775 19.5388C32.3796 19.5388 34.2525 21.4117 34.2525 23.7138V27.8888Z" fill="#605F70"/>
</svg>
