<svg width="40" height="57" viewBox="0 0 40 57" fill="none" xmlns="http://www.w3.org/2000/svg">
<path d="M20 0L25.85 3.02839L32.3624 4.01682L35.3137 9.90536L40 14.5321L38.9274 21.0305L40 27.5289L35.3137 32.1556L32.3624 38.0442L25.85 39.0326L20 42.061L14.15 39.0326L7.63757 38.0442L4.6863 32.1556L0 27.5289L1.07256 21.0305L0 14.5321L4.6863 9.90536L7.63757 4.01682L14.15 3.02839L20 0Z" fill="#606166"/>
<path d="M5.96875 41.3389V56.0812L19.9891 52.5762L34.0094 56.0812V41.3389L26.9362 42.4114L19.9891 46.0076L13.042 42.4114L5.96875 41.3389Z" fill="#393C43"/>
</svg>
