<svg width="30" height="26" viewBox="0 0 30 26" fill="none" xmlns="http://www.w3.org/2000/svg">
<path d="M1.60358 4.89446H28.5257C29.0976 4.89446 29.5612 4.4309 29.5612 3.859V1.27033C29.5612 0.698429 29.0976 0.234863 28.5257 0.234863H1.60358C1.03168 0.234863 0.568115 0.698429 0.568115 1.27033V3.859C0.568115 4.4309 1.03168 4.89446 1.60358 4.89446ZM1.60358 15.2491H28.5257C29.0976 15.2491 29.5612 14.7856 29.5612 14.2137V11.625C29.5612 11.0531 29.0976 10.5895 28.5257 10.5895H1.60358C1.03168 10.5895 0.568115 11.0531 0.568115 11.625V14.2137C0.568115 14.7856 1.03168 15.2491 1.60358 15.2491ZM1.60358 25.6038H28.5257C29.0976 25.6038 29.5612 25.1402 29.5612 24.5683V21.9797C29.5612 21.4078 29.0976 20.9442 28.5257 20.9442H1.60358C1.03168 20.9442 0.568115 21.4078 0.568115 21.9797V24.5683C0.568115 25.1402 1.03168 25.6038 1.60358 25.6038Z" fill="#F5F5F5"/>
</svg>
