<svg width="35" height="28" viewBox="0 0 35 28" fill="none" xmlns="http://www.w3.org/2000/svg">
<path d="M34.3369 9.24583C34.6035 9.01979 35 9.23125 35 9.58854V24.5C35 26.4323 33.5303 28 31.7187 28H3.28125C1.46973 28 0 26.4323 0 24.5V9.59583C0 9.23125 0.389648 9.02708 0.663086 9.25312C2.19434 10.5219 4.22461 12.1333 11.1973 17.5365C12.6396 18.6594 15.0732 21.0219 17.5 21.0073C19.9404 21.0292 22.4219 18.6156 23.8096 17.5365C30.7822 12.1333 32.8057 10.5146 34.3369 9.24583ZM17.5 18.6667C19.0859 18.6958 21.3691 16.5375 22.5176 15.6479C31.5889 8.62604 32.2793 8.01354 34.3711 6.26354C34.7676 5.93542 35 5.425 35 4.88542V3.5C35 1.56771 33.5303 0 31.7187 0H3.28125C1.46973 0 0 1.56771 0 3.5V4.88542C0 5.425 0.232422 5.92812 0.628906 6.26354C2.7207 8.00625 3.41113 8.62604 12.4824 15.6479C13.6309 16.5375 15.9141 18.6958 17.5 18.6667Z" fill="#605F70"/>
</svg>
