<svg width="12" height="10" viewBox="0 0 9 8" fill="none" xmlns="http://www.w3.org/2000/svg">
<path d="M0.685708 1.68312H8.11428C8.27208 1.68312 8.39999 1.55233 8.39999 1.39096V0.660567C8.39999 0.499204 8.27208 0.368408 8.11428 0.368408H0.685708C0.527905 0.368408 0.399994 0.499204 0.399994 0.660567V1.39096C0.399994 1.55233 0.527905 1.68312 0.685708 1.68312ZM0.685708 4.60471H8.11428C8.27208 4.60471 8.39999 4.47392 8.39999 4.31255V3.58216C8.39999 3.42079 8.27208 3.29 8.11428 3.29H0.685708C0.527905 3.29 0.399994 3.42079 0.399994 3.58216V4.31255C0.399994 4.47392 0.527905 4.60471 0.685708 4.60471ZM0.685708 7.5263H8.11428C8.27208 7.5263 8.39999 7.39551 8.39999 7.23414V6.50375C8.39999 6.34238 8.27208 6.21159 8.11428 6.21159H0.685708C0.527905 6.21159 0.399994 6.34238 0.399994 6.50375V7.23414C0.399994 7.39551 0.527905 7.5263 0.685708 7.5263Z" fill="#F5F5F5"/>
</svg>
