<svg width="32" height="36" viewBox="0 0 32 36" fill="none" xmlns="http://www.w3.org/2000/svg">
<path d="M16 36C18.5228 36 20.5693 33.9855 20.5693 31.5H11.4307C11.4307 33.9855 13.4771 36 16 36ZM31.385 25.4735C30.005 24.0138 27.4228 21.818 27.4228 14.625C27.4228 9.16172 23.5314 4.78828 18.2843 3.71531V2.25C18.2843 1.00758 17.2614 0 16 0C14.7386 0 13.7157 1.00758 13.7157 2.25V3.71531C8.46859 4.78828 4.57718 9.16172 4.57718 14.625C4.57718 21.818 1.99504 24.0138 0.615047 25.4735C0.186477 25.927 -0.00352203 26.4691 4.93847e-05 27C0.0079065 28.1531 0.927189 29.25 2.2929 29.25H29.7071C31.0728 29.25 31.9928 28.1531 32 27C32.0035 26.4691 31.8135 25.9263 31.385 25.4735Z" fill="#605F70"/>
</svg>
