<svg width="39" height="39" viewBox="0 0 39 39" fill="none" xmlns="http://www.w3.org/2000/svg">
<path d="M39 19.5C39 30.2719 30.2688 39 19.5 39C8.7312 39 0 30.2719 0 19.5C0 8.73435 8.7312 0 19.5 0C30.2688 0 39 8.73435 39 19.5ZM19.5 23.4315C17.5024 23.4315 15.8831 25.0508 15.8831 27.0484C15.8831 29.046 17.5024 30.6653 19.5 30.6653C21.4976 30.6653 23.1169 29.046 23.1169 27.0484C23.1169 25.0508 21.4976 23.4315 19.5 23.4315ZM16.066 10.4305L16.6493 21.124C16.6766 21.6244 17.0903 22.0161 17.5914 22.0161H21.4086C21.9097 22.0161 22.3234 21.6244 22.3507 21.124L22.934 10.4305C22.9635 9.88996 22.5331 9.43548 21.9918 9.43548H17.0081C16.4668 9.43548 16.0365 9.88996 16.066 10.4305Z" fill="#605F70"/>
</svg>
