<svg width="47" height="47" viewBox="0 0 47 47" fill="none" xmlns="http://www.w3.org/2000/svg">
<path d="M21.1859 37.0127H25.7533V32.3972H21.1859V37.0127ZM23.4696 0.0888672C10.8637 0.0888672 0.632812 10.4275 0.632812 23.1663C0.632812 35.905 10.8637 46.2437 23.4696 46.2437C36.0755 46.2437 46.3064 35.905 46.3064 23.1663C46.3064 10.4275 36.0755 0.0888672 23.4696 0.0888672ZM23.4696 41.6282C13.3986 41.6282 5.20017 33.3434 5.20017 23.1663C5.20017 12.9891 13.3986 4.70435 23.4696 4.70435C33.5406 4.70435 41.739 12.9891 41.739 23.1663C41.739 33.3434 33.5406 41.6282 23.4696 41.6282ZM23.4696 9.31982C18.4227 9.31982 14.3349 13.4507 14.3349 18.5508H18.9022C18.9022 16.0123 20.9575 13.9353 23.4696 13.9353C25.9816 13.9353 28.0369 16.0123 28.0369 18.5508C28.0369 23.1663 21.1859 22.5893 21.1859 30.0895H25.7533C25.7533 24.8971 32.6043 24.3201 32.6043 18.5508C32.6043 13.4507 28.5165 9.31982 23.4696 9.31982Z" fill="#A29A9A"/>
</svg>
