<svg width="40" height="40" viewBox="0 0 40 40" fill="none" xmlns="http://www.w3.org/2000/svg">
<path d="M0 40H40V32.8571C39.9958 30.2059 38.5194 27.6641 35.8948 25.7894C33.2702 23.9147 29.7117 22.8602 26 22.8571H14C10.2883 22.8602 6.72977 23.9147 4.10518 25.7894C1.48059 27.6641 0.00423472 30.2059 0 32.8571V40ZM6 10C6 11.9778 6.82108 13.9112 8.35942 15.5557C9.89776 17.2002 12.0843 18.4819 14.6424 19.2388C17.2006 19.9957 20.0155 20.1937 22.7313 19.8079C25.447 19.422 27.9416 18.4696 29.8995 17.0711C31.8574 15.6725 33.1908 13.8907 33.731 11.9509C34.2712 10.0111 33.9939 8.00043 32.9343 6.17317C31.8747 4.3459 30.0803 2.78412 27.778 1.6853C25.4757 0.58649 22.7689 0 20 0C16.287 0 12.726 1.05357 10.1005 2.92893C7.475 4.8043 6 7.34784 6 10Z" fill="white" fill-opacity="0.8"/>
</svg>
