<svg width="27" height="27" viewBox="0 0 27 27" fill="none" xmlns="http://www.w3.org/2000/svg">
<path d="M12.15 21.6H14.85V18.9H12.15V21.6ZM13.5 0C11.7272 0 9.97167 0.349188 8.33377 1.02763C6.69588 1.70606 5.20765 2.70047 3.95406 3.95406C1.42232 6.4858 0 9.91958 0 13.5C0 17.0804 1.42232 20.5142 3.95406 23.0459C5.20765 24.2995 6.69588 25.2939 8.33377 25.9724C9.97167 26.6508 11.7272 27 13.5 27C17.0804 27 20.5142 25.5777 23.0459 23.0459C25.5777 20.5142 27 17.0804 27 13.5C27 11.7272 26.6508 9.97167 25.9724 8.33377C25.2939 6.69588 24.2995 5.20765 23.0459 3.95406C21.7924 2.70047 20.3041 1.70606 18.6662 1.02763C17.0283 0.349188 15.2728 0 13.5 0ZM13.5 24.3C7.5465 24.3 2.7 19.4535 2.7 13.5C2.7 7.5465 7.5465 2.7 13.5 2.7C19.4535 2.7 24.3 7.5465 24.3 13.5C24.3 19.4535 19.4535 24.3 13.5 24.3ZM13.5 5.4C12.0678 5.4 10.6943 5.96893 9.68162 6.98162C8.66893 7.99432 8.1 9.36783 8.1 10.8H10.8C10.8 10.0839 11.0845 9.39716 11.5908 8.89081C12.0972 8.38446 12.7839 8.1 13.5 8.1C14.2161 8.1 14.9028 8.38446 15.4092 8.89081C15.9155 9.39716 16.2 10.0839 16.2 10.8C16.2 13.5 12.15 13.1625 12.15 17.55H14.85C14.85 14.5125 18.9 14.175 18.9 10.8C18.9 9.36783 18.3311 7.99432 17.3184 6.98162C16.3057 5.96893 14.9322 5.4 13.5 5.4Z" fill="#A57F05"/>
</svg>
