<svg width="45" height="45" viewBox="0 0 45 45" fill="none" xmlns="http://www.w3.org/2000/svg">
<path d="M6.75 22.5H4.5V40.5C4.5 41.6935 4.97411 42.8381 5.81802 43.682C6.66193 44.5259 7.80653 45 9 45H20.25V22.5H6.75ZM36 22.5H24.75V45H36C37.1935 45 38.3381 44.5259 39.182 43.682C40.0259 42.8381 40.5 41.6935 40.5 40.5V22.5H36ZM37.7798 11.25C38.1097 10.156 38.2684 9.01753 38.25 7.875C38.25 3.5325 34.7175 0 30.375 0C26.7255 0 24.2887 3.3345 22.716 6.94125C21.1657 3.5325 18.6052 0 14.625 0C10.2825 0 6.75 3.5325 6.75 7.875C6.75 9.216 6.92775 10.3252 7.22025 11.25H0V20.25H20.25V15.75H24.75V20.25H45V11.25H37.7798ZM11.25 7.875C11.25 6.01425 12.7642 4.5 14.625 4.5C16.623 4.5 18.4815 7.93125 19.5705 11.25H13.5C12.6585 11.25 11.25 11.25 11.25 7.875ZM30.375 4.5C32.2357 4.5 33.75 6.01425 33.75 7.875C33.75 11.25 32.3415 11.25 31.5 11.25H25.9268C27.0742 7.704 28.7415 4.5 30.375 4.5Z" fill="#848485"/>
</svg>
