<svg width="47" height="48" viewBox="0 0 47 48" fill="none" xmlns="http://www.w3.org/2000/svg">
<path d="M46.0105 40.9099L36.9774 31.8767C36.5697 31.469 36.017 31.2425 35.4371 31.2425H33.9603C36.4609 28.0442 37.9468 24.0214 37.9468 19.6453C37.9468 9.23497 29.5117 0.799805 19.1013 0.799805C8.69103 0.799805 0.255859 9.23497 0.255859 19.6453C0.255859 30.0556 8.69103 38.4908 19.1013 38.4908C23.4775 38.4908 27.5003 37.0049 30.6986 34.5042V35.9811C30.6986 36.5609 30.9251 37.1136 31.3328 37.5213L40.3659 46.5545C41.2176 47.4061 42.5948 47.4061 43.4374 46.5545L46.0015 43.9904C46.8531 43.1387 46.8531 41.7616 46.0105 40.9099ZM19.1013 31.2425C12.6957 31.2425 7.50412 26.06 7.50412 19.6453C7.50412 13.2396 12.6866 8.04807 19.1013 8.04807C25.507 8.04807 30.6986 13.2306 30.6986 19.6453C30.6986 26.0509 25.5161 31.2425 19.1013 31.2425Z" fill="#878787"/>
</svg>
