<svg width="54" height="53" viewBox="0 0 54 53" fill="none" xmlns="http://www.w3.org/2000/svg">
<path d="M24.5047 25.0797C24.4237 21.2416 23.6104 17.4542 22.1083 13.9212C12.5228 18.3973 5.48141 26.8427 3.07447 36.8083C4.48306 40.0357 6.52576 42.9472 9.08128 45.3699C11.5115 36.9194 17.0126 29.6824 24.5047 25.0797ZM20.6093 10.8914C19.0037 8.09402 16.9576 5.5738 14.5497 3.42777C4.94302 8.68505 -0.736531 19.5691 1.35371 31.1077C4.87968 22.335 11.7416 15.0613 20.6093 10.8914ZM40.4138 28.3207C41.3217 17.785 37.5318 7.47102 30.1209 0.408532C28.5691 0.229067 24.6736 -0.172091 19.6803 1.30586C25.7896 7.63661 29.3105 16.0233 29.5509 24.8179C32.9152 26.6679 36.6025 27.8569 40.4138 28.3207ZM27.2495 29.3236C23.966 31.3171 21.0925 33.9183 18.783 36.9878C27.4395 43.0368 38.2602 44.9159 48.078 42.0339C50.1899 39.2044 51.7054 35.9757 52.533 32.5434C49.7413 33.2547 46.8734 33.6234 43.9925 33.6413C38.2285 33.6307 32.4962 32.1528 27.2495 29.3236ZM16.8722 39.8487C15.2676 42.5934 14.1591 45.5916 13.4835 48.7375C18.1664 51.6117 23.6374 52.9337 29.1161 52.5147C34.5947 52.0958 39.8011 49.9573 43.9925 46.4044C32.0739 48.1041 22.5306 43.7863 16.8722 39.8487ZM35.9061 1.78091C41.744 9.21289 44.6154 18.7984 43.7814 28.5529C46.9975 28.5597 50.1941 28.0537 53.2508 27.0538C53.2508 26.8427 53.2825 26.6316 53.2825 26.4204C53.2825 15.0402 46.03 5.40189 35.9061 1.78091Z" fill="#878787"/>
</svg>
