<svg width="80" height="80" viewBox="0 0 80 80" fill="none" xmlns="http://www.w3.org/2000/svg">
<path d="M40 0L42.3901 24.9095L52.3607 1.95774L46.9364 26.3866L63.5114 7.63932L50.8036 29.1964L72.3607 16.4886L53.6134 33.0636L78.0423 27.6393L55.0905 37.6099L80 40L55.0905 42.3901L78.0423 52.3607L53.6134 46.9364L72.3607 63.5114L50.8036 50.8036L63.5114 72.3607L46.9364 53.6134L52.3607 78.0423L42.3901 55.0905L40 80L38.8049 67.5453L37.6099 55.0905L27.6393 78.0423L33.0636 53.6134L16.4886 72.3607L29.1964 50.8036L7.63932 63.5114L26.3866 46.9364L1.95774 52.3607L24.9095 42.3901L0 40L24.9095 37.6099L1.95774 27.6393L26.3866 33.0636L7.63932 16.4886L29.1964 29.1964L16.4886 7.63932L33.0636 26.3866L27.6393 1.95774L37.6099 24.9095L40 0Z" fill="#EA9227" fill-opacity="0.61"/>
</svg>
