<svg width="46" height="52" viewBox="0 0 46 52" fill="none" xmlns="http://www.w3.org/2000/svg">
<path d="M14.353 36H11.327C10.0418 36 9 37.0418 9 38.327V48.917C9 50.2022 10.0418 51.244 11.327 51.244H14.353C15.6382 51.244 16.68 50.2022 16.68 48.917V38.327C16.68 37.0418 15.6382 36 14.353 36Z" fill="#696F77"/>
<path d="M27.353 26H24.327C23.0418 26 22 27.0418 22 28.327V48.394C22 49.6792 23.0418 50.721 24.327 50.721H27.353C28.6382 50.721 29.68 49.6792 29.68 48.394V28.327C29.68 27.0418 28.6382 26 27.353 26Z" fill="#696F77"/>
<path d="M40.353 16H37.327C36.0418 16 35 17.0418 35 18.327V48.259C35 49.5442 36.0418 50.586 37.327 50.586H40.353C41.6382 50.586 42.68 49.5442 42.68 48.259V18.327C42.68 17.0418 41.6382 16 40.353 16Z" fill="#696F77"/>
<path d="M3 29C5.08497 29 14.7796 28.7169 14.9149 26.1446C15.0224 24.1006 14.5368 20.3277 15.9551 18.7416C18.043 16.4065 22.0815 18.3477 24.6548 17.5254C26.712 16.8681 27.9644 7.66372 29.383 5.68061C32.193 1.7522 39.0244 3.30108 43 3.30108" stroke="#696F77" stroke-width="5" stroke-linecap="round"/>
</svg>
