<svg width="43" height="34" viewBox="0 0 43 34" fill="none" xmlns="http://www.w3.org/2000/svg">
<path d="M31.3473 13.9253H42.3036C42.436 13.9254 42.5656 13.9631 42.6773 14.0342C42.789 14.1052 42.8781 14.2066 42.9342 14.3265C42.9904 14.4464 43.0112 14.5798 42.9943 14.7111C42.9773 14.8423 42.9234 14.9661 42.8386 15.0678L37.3605 21.6438C37.2951 21.7222 37.2133 21.7853 37.1208 21.8286C37.0284 21.8718 36.9276 21.8943 36.8255 21.8943C36.7234 21.8943 36.6226 21.8718 36.5301 21.8286C36.4377 21.7853 36.3559 21.7222 36.2905 21.6438L30.8123 15.0678C30.7276 14.9661 30.6736 14.8423 30.6567 14.7111C30.6398 14.5798 30.6606 14.4464 30.7167 14.3265C30.7729 14.2066 30.862 14.1052 30.9737 14.0342C31.0853 13.9631 31.215 13.9254 31.3473 13.9253ZM0.696352 19.4982H11.6527C11.785 19.4982 11.9147 19.4604 12.0263 19.3894C12.138 19.3183 12.2271 19.2169 12.2833 19.0971C12.3394 18.9772 12.3602 18.8438 12.3433 18.7125C12.3264 18.5812 12.2724 18.4575 12.1877 18.3558L6.70951 11.7798C6.64414 11.7014 6.56233 11.6383 6.46988 11.595C6.37743 11.5517 6.2766 11.5293 6.17452 11.5293C6.07244 11.5293 5.9716 11.5517 5.87915 11.595C5.7867 11.6383 5.70489 11.7014 5.63952 11.7798L0.161353 18.3558C0.076639 18.4575 0.0226551 18.5812 0.00572318 18.7125C-0.0112087 18.8438 0.00961223 18.9772 0.065748 19.0971C0.121884 19.2169 0.211011 19.3183 0.322692 19.3894C0.434373 19.4604 0.563986 19.4982 0.696352 19.4982Z" fill="#696F77"/>
<path fill-rule="evenodd" clip-rule="evenodd" d="M21.4952 2.7803C17.1707 2.7803 13.3031 4.75032 10.7479 7.84607C10.6338 7.99395 10.4911 8.11739 10.3284 8.20903C10.1656 8.30067 9.9861 8.35865 9.80048 8.37952C9.61487 8.40039 9.42695 8.38372 9.24791 8.33051C9.06886 8.27729 8.90235 8.18862 8.75826 8.06976C8.61417 7.95091 8.49545 7.80429 8.40917 7.63863C8.32288 7.47297 8.27078 7.29165 8.25598 7.10545C8.24117 6.91926 8.26396 6.73198 8.32298 6.55477C8.382 6.37756 8.47606 6.21402 8.59955 6.07388C10.6398 3.60377 13.3465 1.77163 16.3979 0.795384C19.4493 -0.180864 22.7168 -0.260139 25.8119 0.566988C28.9071 1.39412 31.6995 3.09284 33.8571 5.46111C36.0147 7.82938 37.4467 10.7675 37.9827 13.9261H35.1489C34.5055 10.7797 32.7953 7.95193 30.3075 5.92103C27.8196 3.89013 24.7068 2.78069 21.4952 2.7803ZM7.84163 19.499C8.36914 22.0754 9.6148 24.45 11.4347 26.3485C13.2546 28.247 15.5745 29.5918 18.1263 30.2276C20.6782 30.8635 23.3578 30.7644 25.8557 29.9418C28.3536 29.1192 30.5679 27.6067 32.2426 25.579C32.3567 25.4312 32.4994 25.3077 32.6621 25.2161C32.8249 25.1244 33.0044 25.0665 33.19 25.0456C33.3756 25.0247 33.5635 25.0414 33.7426 25.0946C33.9216 25.1478 34.0881 25.2365 34.2322 25.3553C34.3763 25.4742 34.495 25.6208 34.5813 25.7865C34.6676 25.9521 34.7197 26.1335 34.7345 26.3197C34.7493 26.5059 34.7265 26.6931 34.6675 26.8703C34.6085 27.0476 34.5144 27.2111 34.3909 27.3512C32.3507 29.8213 29.644 31.6535 26.5926 32.6297C23.5412 33.606 20.2737 33.6853 17.1785 32.8581C14.0834 32.031 11.291 30.3323 9.1334 27.964C6.97581 25.5957 5.54384 22.6576 5.00781 19.499H7.84163Z" fill="#696F77"/>
<circle cx="21.5" cy="16.5" r="9.5" fill="#696F77"/>
</svg>
