<svg width="64" height="52" viewBox="0 0 64 52" fill="none" xmlns="http://www.w3.org/2000/svg">
<path d="M57.4215 12.9543C57.4621 13.5228 57.4621 14.0914 57.4621 14.6599C57.4621 32 44.2642 51.9798 20.1422 51.9798C12.7107 51.9798 5.80715 49.8274 0 46.0916C1.05588 46.2133 2.07101 46.2539 3.16751 46.2539C9.29941 46.2539 14.9442 44.1829 19.4518 40.6499C13.6853 40.528 8.85279 36.7514 7.18778 31.5534C8.00003 31.6751 8.81216 31.7564 9.66504 31.7564C10.8427 31.7564 12.0204 31.5939 13.1168 31.3097C7.10665 30.0914 2.59889 24.8122 2.59889 18.4366V18.2742C4.34502 19.2488 6.37565 19.858 8.52778 19.9391C4.99477 17.5837 2.68014 13.5634 2.68014 9.01516C2.68014 6.57865 3.32976 4.34514 4.46689 2.39588C10.9238 10.3553 20.6295 15.5532 31.5126 16.1218C31.3096 15.1472 31.1877 14.1321 31.1877 13.1168C31.1877 5.88827 37.0355 0 44.3046 0C48.0812 0 51.4923 1.58376 53.8883 4.14214C56.8527 3.57364 59.6954 2.47713 62.2132 0.974629C61.2385 4.02039 59.1675 6.57878 56.4467 8.20303C59.0864 7.91891 61.6447 7.18778 64 6.17265C62.2135 8.77153 59.9799 11.0862 57.4215 12.9543Z" fill="#624DE2"/>
</svg>
