<svg width="28" height="24" viewBox="0 0 28 24" fill="none" xmlns="http://www.w3.org/2000/svg">
<path d="M24.6176 5.57168H4.86264C4.40452 5.57168 4.03347 5.21057 4.03347 4.76473C4.03347 4.31889 4.40452 3.95778 4.86264 3.95778H24.7627C25.2208 3.95778 25.5919 3.59667 25.5919 3.15083C25.5919 1.81381 24.4782 0.72998 23.1043 0.72998H4.03347C2.20153 0.72998 0.716797 2.17492 0.716797 3.95778V20.0968C0.716797 21.8796 2.20153 23.3246 4.03347 23.3246H24.6176C26.0697 23.3246 27.2502 22.2387 27.2502 20.9037V7.99253C27.2502 6.65753 26.0697 5.57168 24.6176 5.57168ZM22.2752 16.062C21.3595 16.062 20.6168 15.3393 20.6168 14.4481C20.6168 13.557 21.3595 12.8342 22.2752 12.8342C23.1909 12.8342 23.9335 13.557 23.9335 14.4481C23.9335 15.3393 23.1909 16.062 22.2752 16.062Z" fill="white"/>
</svg>
