<svg width="42" height="36" viewBox="0 0 42 36" fill="none" xmlns="http://www.w3.org/2000/svg">
<path d="M37.8328 7.71429H6.5625C5.83734 7.71429 5.25 7.13893 5.25 6.42857C5.25 5.71821 5.83734 5.14286 6.5625 5.14286H38.0625C38.7877 5.14286 39.375 4.5675 39.375 3.85714C39.375 1.72687 37.6121 0 35.4375 0H5.25C2.3502 0 0 2.30223 0 5.14286V30.8571C0 33.6978 2.3502 36 5.25 36H37.8328C40.1313 36 42 34.2699 42 32.1429V11.5714C42 9.44438 40.1313 7.71429 37.8328 7.71429ZM34.125 24.4286C32.6755 24.4286 31.5 23.2771 31.5 21.8571C31.5 20.4372 32.6755 19.2857 34.125 19.2857C35.5745 19.2857 36.75 20.4372 36.75 21.8571C36.75 23.2771 35.5745 24.4286 34.125 24.4286Z" fill="#696F77"/>
</svg>
