<svg width="80" height="150" viewBox="0 0 80 150" fill="none" xmlns="http://www.w3.org/2000/svg">
<path d="M35.7654 99.0544C36.4034 99.1616 37.0414 99.2687 37.6794 99.483C41.6351 100.662 45.3357 103.662 48.3344 108.269C57.0752 119.572 67.5069 133.822 72.8344 149.947H73.9509C78.5765 149.947 81.4795 141.59 79.2146 134.84C75.0036 122.358 69.07 111.751 61.9242 103.929C59.4997 100.769 56.501 99.0544 53.4385 99.0544H35.7654Z" fill="#0074BA"/>
<path d="M37.6482 100.211L39.4985 122.036L47.8247 145.018C48.8774 148.125 50.8553 150 52.9926 150H59.9375L40.111 99.2357C40.4155 99.1658 40.7208 99.1051 41.0266 99.0536V99H26.5754C23.481 99 20.5142 100.714 18.0897 103.875C10.9221 111.678 4.98891 122.285 0.79936 134.786C-1.49751 141.589 1.43738 149.946 6.03113 149.946H7.14767C15.7928 134.786 26.0969 119.571 34.8378 108.268C36.1712 106.221 36.3818 104.491 36.5509 103.098C36.704 101.866 36.822 100.902 37.6482 100.205V100.211Z" fill="#F8312F"/>
<path d="M38.2033 106.821L37.629 100.018C34.2101 101.445 31.0568 104.28 28.4543 108.268C19.7134 119.571 12.4719 133.821 7.14442 149.946H21.7232L38.2033 106.821ZM38.803 99.0536H38.9498L38.3117 97.7679L38.803 99.0536ZM40.0982 99.2196C40.4076 99.1554 40.7171 99.1071 41.0233 99.0536L41.6613 97.7679L40.9914 99.5196C44.9202 100.717 48.5687 103.749 51.5188 108.268C60.2596 119.571 68.1647 133.875 73.4922 150H59.494L40.0982 99.2196Z" fill="#D3D3D3"/>
<path d="M20.5156 149.947H27.0234C29.1608 149.947 31.1068 148.072 32.1914 144.965L48.8438 99.0008H39.9753L20.5156 149.947Z" fill="#00A6ED"/>
<path d="M38.0661 76.7662L35.4183 67.5519C35.0993 66.4805 34.4932 65.6769 33.7914 65.5162L27.8897 64.0162C26.1351 63.5876 25.4014 59.8376 26.7093 57.6948L30.7927 50.8376C31.3988 49.8198 31.5902 48.3198 31.335 46.9269L29.4528 37.7662C28.8148 34.7126 30.6013 31.8198 32.3558 33.1055L39.1826 38.2483C39.4523 38.4598 39.7463 38.5695 40.044 38.5695C40.3416 38.5695 40.6356 38.4598 40.9053 38.2483L47.7321 33.1055C49.4548 31.8198 51.2731 34.7126 50.6351 37.7662L48.7529 46.9269C48.4658 48.3198 48.6891 49.8198 49.2953 50.8376L53.3786 57.6948C54.6546 59.8376 53.9528 63.5876 52.1983 64.0162L46.2966 65.5162C45.5947 65.6769 44.9886 66.4269 44.6696 67.5519L42.0218 76.7662C41.1605 79.5519 38.8636 79.5519 38.0661 76.7662Z" fill="#D3883E"/>
<path d="M40.0495 -9.93184e-07C22.3604 -9.93184e-07 8.02085 24.6804 8.02085 55.125C8.02085 85.5696 22.3604 110.25 40.0495 110.25C57.7386 110.25 72.0781 85.5696 72.0781 55.125C72.0781 24.6804 57.7386 -9.93184e-07 40.0495 -9.93184e-07Z" fill="#FFB02E"/>
<path d="M39.9951 6.64182C47.5238 6.64182 54.6058 11.6775 59.9014 20.8382C65.2311 29.9998 68.1992 42.3163 68.1637 55.124C68.1637 68.0883 65.2289 80.249 59.9014 89.4097C57.3165 93.8957 54.2207 97.4629 50.7982 99.8992C47.3757 102.335 43.6964 103.591 39.9792 103.591C36.2619 103.591 32.5826 102.335 29.1601 99.8992C25.7377 97.4629 22.6419 93.8957 20.057 89.4097C9.08303 70.499 9.08303 39.749 20.057 20.8382C25.4164 11.6775 32.4984 6.64182 39.9951 6.64182ZM40.027 97.0168C46.2477 97.0168 52.5003 92.9454 57.2217 84.749C61.8145 76.8225 64.3693 66.1834 64.3356 55.124C64.3356 43.9275 61.8154 33.4275 57.2217 25.499C54.9948 21.616 52.3241 18.528 49.3695 16.42C46.4149 14.312 43.2372 13.2273 40.027 13.2311C33.5192 13.2311 27.4261 17.5704 22.8324 25.499C13.3578 41.8382 13.3578 68.4097 22.8324 84.749C25.0575 88.6359 27.7279 91.7265 30.6829 93.8348C33.6379 95.9431 36.8164 97.0255 40.027 97.0168Z" fill="#FCD53F"/>
<path d="M38.0895 76.8238L35.4418 67.6095C35.1227 66.5381 34.5166 65.7345 33.8148 65.5738L27.9131 64.0738C26.1585 63.6452 25.4248 59.8952 26.7328 57.7524L30.8161 50.8952C31.4222 49.8774 31.6136 48.3774 31.3584 46.9845L29.4763 37.8238C28.8382 34.7702 30.6247 31.8774 32.3793 33.1631L39.2061 38.3059C39.4757 38.5178 39.7697 38.6277 40.0674 38.6277C40.3651 38.6277 40.6591 38.5178 40.9287 38.3059L47.7556 33.1631C49.4782 31.8774 51.2966 34.7702 50.6585 37.8238L48.7764 46.9845C48.4893 48.3774 48.7126 49.8774 49.3187 50.8952L53.402 57.7524C54.6781 59.8952 53.9763 63.6452 52.2217 64.0738L46.32 65.5738C45.6182 65.7345 45.0121 66.4845 44.6931 67.6095L42.0453 76.8238C41.1839 79.6095 38.8871 79.6095 38.0895 76.8238Z" fill="#6D4534"/>
</svg>
