<svg width="76" height="53" viewBox="0 0 76 53" fill="none" xmlns="http://www.w3.org/2000/svg">
<path d="M22.8 26.5C30.1506 26.5 36.1 20.573 36.1 13.25C36.1 5.92701 30.1506 0 22.8 0C15.4494 0 9.5 5.92701 9.5 13.25C9.5 20.573 15.4494 26.5 22.8 26.5ZM31.92 30.2857H30.9344C28.4644 31.4688 25.7213 32.1786 22.8 32.1786C19.8787 32.1786 17.1475 31.4688 14.6656 30.2857H13.68C6.1275 30.2857 0 36.3902 0 43.9143V47.3214C0 50.4565 2.55312 53 5.7 53H39.9C43.0469 53 45.6 50.4565 45.6 47.3214V43.9143C45.6 36.3902 39.4725 30.2857 31.92 30.2857ZM57 26.5C63.2938 26.5 68.4 21.4129 68.4 15.1429C68.4 8.87277 63.2938 3.78571 57 3.78571C50.7062 3.78571 45.6 8.87277 45.6 15.1429C45.6 21.4129 50.7062 26.5 57 26.5ZM62.7 30.2857H62.2487C60.5981 30.8536 58.8525 31.2321 57 31.2321C55.1475 31.2321 53.4019 30.8536 51.7512 30.2857H51.3C48.8775 30.2857 46.645 30.9837 44.6856 32.1076C47.5831 35.219 49.4 39.3478 49.4 43.9143V48.4571C49.4 48.7174 49.3406 48.9659 49.3287 49.2143H70.3C73.4469 49.2143 76 46.6708 76 43.5357C76 36.2127 70.0506 30.2857 62.7 30.2857Z" fill="#828C97"/>
</svg>
