<svg width="88" height="150" viewBox="0 0 88 150" fill="none" xmlns="http://www.w3.org/2000/svg">
<path d="M61.3823 79.5234V64.2928C61.3823 61.865 57.8975 59.904 53.5989 59.904H31.4277C27.1208 59.904 23.6388 61.865 23.6388 64.2928V79.5234H61.3906" fill="#F7941E"/>
<path d="M87.4062 149.917V108.773C87.4062 100.336 70.0126 73.6676 61.2271 73.6676L26.1768 73.6676C17.3913 73.6676 -0.00236511 100.338 -0.00236511 108.773V149.917H87.4062Z" fill="#4B246D"/>
<path d="M3.73153 32.8633C3.73153 14.7099 21.0948 7.62939e-06 42.5103 7.62939e-06C63.9258 7.62939e-06 81.2891 14.7169 81.2891 32.8633C81.2891 51.0073 63.9175 65.7266 42.5103 65.7266C21.092 65.7242 3.73153 51.0073 3.73153 32.8633Z" fill="#E88821"/>
<path d="M56.6328 150H29.1777L29.1777 73.5489H56.6328L56.6328 150Z" fill="#F15A29"/>
<path d="M9.1853 40.9843C16.4207 41.8733 23.645 42.76 30.8665 43.656C34.0884 49.1778 37.2964 54.6996 40.5183 60.2167C40.9806 61.0095 41.7584 61.2816 42.5334 61.2136C43.3001 61.2816 44.0834 61.0095 44.5457 60.2167L54.1919 43.656C61.419 42.76 68.6433 41.8733 75.8732 40.9843C77.6529 40.7638 78.0432 38.6151 76.9001 37.6815L61.3886 24.8646C62.5981 18.9112 63.7967 12.9578 65.0007 7.00446C65.3467 5.30382 63.5005 3.91516 61.5768 4.77369C55.2327 7.6073 48.8775 10.4292 42.5361 13.2628C36.1782 10.4292 29.8369 7.6073 23.4872 4.77369C21.569 3.91516 19.7201 5.30617 20.0605 7.00446C21.2729 12.9578 22.4686 18.9112 23.681 24.8646L8.16669 37.6815C7.02077 38.6222 7.40275 40.7638 9.1853 40.9843Z" fill="#F2A755"/>
</svg>
