<svg width="110" height="149" viewBox="0 0 110 149" fill="none" xmlns="http://www.w3.org/2000/svg">
<path d="M15.6473 149L46.9375 101.816H31.2924L0.00215912 149H15.6473Z" fill="#428BC1"/>
<path d="M31.3052 149L62.8438 101.816H46.9503L15.6601 149H31.3052Z" fill="#E8E8E8"/>
<path d="M46.9458 149L78.4844 101.816H62.8393L31.3007 149H46.9458Z" fill="#ED4C5C"/>
<path d="M83.7058 112.247C85.1958 112.247 86.4375 111.005 86.4375 109.515V85.9235C86.4375 84.4335 85.1958 83.1919 83.7058 83.1919H26.0921C24.602 83.1919 23.3604 84.4335 23.3604 85.9235V109.515C23.3604 111.005 24.602 112.247 26.0921 112.247L83.7058 112.247ZM28.8237 94.1186C28.8237 92.6286 30.0654 91.3869 31.5554 91.3869H78.7391C80.2291 91.3869 81.4708 92.6286 81.4708 94.1186V104.549C81.4708 106.039 80.2291 107.28 78.7391 107.28H31.5554C30.0654 107.28 28.8237 106.039 28.8237 104.549V94.1186Z" fill="#FFC200" fill-opacity="0.6"/>
<path d="M78.4832 101.816H62.8381L94.1283 149H109.773L78.4832 101.816Z" fill="#ED4C5C"/>
<path d="M62.8191 101.816H46.9257L78.4643 149H94.1094L62.8191 101.816Z" fill="#E8E8E8"/>
<path d="M46.9458 101.816H31.3007L62.8393 149H78.4844L46.9458 101.816Z" fill="#428BC1"/>
<path d="M54.8905 -0.000312805C27.8716 -0.000312805 5.96844 21.9028 5.96844 48.9217C5.96844 75.9406 27.8716 97.8437 54.8905 97.8438C81.9094 97.8438 103.812 75.9406 103.812 48.9217C103.813 21.9028 81.9094 -0.000312805 54.8905 -0.000312805Z" fill="#FFC200" fill-opacity="0.6"/>
<path d="M54.1389 93.3721C79.2208 93.3721 99.3359 73.0086 99.3359 48.1751C99.3359 40.725 97.5976 33.7716 94.3692 27.5632C95.8592 32.5299 96.8526 37.745 96.8526 43.2084C96.8526 69.7802 76.4891 91.3854 50.4139 93.3721H54.1389Z" fill="#E68A00"/>
<path d="M20.1328 76.9834C7.4677 54.6332 13.9244 25.8264 36.0262 11.1746C40.4963 8.19456 45.463 5.95954 50.4297 4.46953C43.4763 5.21453 36.7713 7.69788 30.5629 11.9196C9.70272 25.8264 4.23934 53.6399 17.8978 74.0034L20.1328 76.9834Z" fill="#FFE394" fill-opacity="0.6"/>
<path d="M54.897 68.7862V84.6797L62.8438 59.8462L59.3671 55.3761L54.897 68.7862Z" fill="#F2B200"/>
<path d="M50.4128 55.3761L46.9361 59.8462L54.8828 84.6797V68.7862L50.4128 55.3761Z" fill="#E68A00"/>
<path d="M47.9375 47.1816L41.9775 44.4499L20.869 59.8467L36.5141 55.3766L47.9375 47.1816Z" fill="#C47500"/>
<path d="M36.5229 55.3766L20.8778 59.8467L46.953 59.8467L50.4297 55.3766H36.5229Z" fill="#FFE394" fill-opacity="0.6"/>
<path d="M59.3622 55.3766L62.8389 59.8467H88.9141L73.2689 55.3766H59.3622Z" fill="#FFD252"/>
<path d="M73.2689 55.3766L88.9141 59.8467L68.0539 44.4499L61.8455 47.1816L73.2689 55.3766Z" fill="#FFDB75"/>
<path d="M47.9375 47.1826L43.4675 33.7725L33.7824 19.6174L41.9775 44.4509L47.9375 47.1826Z" fill="#E68A00"/>
<path d="M54.8837 41.9676V35.0142L33.7752 19.6174L43.4603 33.7725L54.8837 41.9676ZM61.8371 47.1826L68.0455 44.4509L75.9922 19.6174L66.3071 33.7725L61.8371 47.1826Z" fill="#F2B200"/>
<path d="M66.3071 33.7737L75.9922 19.6186L54.8837 35.0154V41.9688L66.3071 33.7737Z" fill="#E68A00"/>
<path d="M50.411 55.378L54.881 68.7881L59.351 55.378H73.2578L61.8344 47.1829L66.3044 33.7728L54.881 41.9679L43.4576 33.7728L47.9276 47.1829L36.5042 55.378L50.411 55.378Z" fill="#FFCE31"/>
</svg>
