<svg width="98" height="150" viewBox="0 0 98 150" fill="none" xmlns="http://www.w3.org/2000/svg">
<path d="M55.2031 94.6094H33.7599V66.2734H55.2031V94.6094Z" fill="#E5E4DF"/>
<path d="M7.03067 150H81.9315C83.8972 150 85.6406 148.726 85.6406 146.981V114.769C85.6406 114.132 85.3477 113.509 84.9419 112.984L64.4555 86.5179C63.7923 85.6584 62.6559 85.1607 61.483 85.1607H59.2224L44.1091 87.7306L29.7401 85.1607L27.4799 85.1607C26.307 85.1607 25.2082 85.6584 24.5449 86.5179L4.08829 112.991C3.6811 113.517 3.45686 114.132 3.45686 114.769V146.981C3.45686 148.726 5.06638 150 7.03067 150Z" fill="#FF473E"/>
<path d="M59.2656 150H29.8418L29.8418 85.1607H59.2656L59.2656 150Z" fill="#C6C6C6"/>
<path d="M44.4799 -0.000450134C19.9137 -0.000450134 -0.00112152 17.6754 -0.00112152 39.4798C-0.00112152 61.2841 19.9137 78.96 44.4799 78.96C69.0461 78.96 88.9609 61.2841 88.9609 39.4798C88.9609 17.6754 69.0461 -0.000450134 44.4799 -0.000450134Z" fill="#FFD60D" fill-opacity="0.8"/>
<path d="M96.5915 61.3972C88.2219 59.5156 81.6337 53.6681 79.5135 46.2398C79.3096 45.5254 78.2736 45.5254 78.0697 46.2398C75.9495 53.6681 69.3613 59.5156 60.9917 61.3972C60.1868 61.5782 60.1868 62.4976 60.9917 62.6786C69.3613 64.5605 75.9495 70.4086 78.0697 77.8372C78.2736 78.5517 79.3096 78.5517 79.5135 77.8372C81.6337 70.4086 88.2219 64.5605 96.5915 62.6786C97.3968 62.4976 97.3964 61.5782 96.5915 61.3972Z" fill="#A4ECF4"/>
</svg>
