<svg width="28" height="26" viewBox="0 0 28 26" fill="none" xmlns="http://www.w3.org/2000/svg">
<path d="M14.035 26C10.9083 22.9088 8.41727 20.413 6.5618 18.5126C4.70634 16.6121 3.29467 15.0321 2.3268 13.7728C1.35894 12.5134 0.728938 11.4373 0.436804 10.5443C0.144671 9.65126 -0.000928875 8.65522 4.4586e-06 7.55614C4.4586e-06 5.44958 0.746671 3.66358 2.24 2.19815C3.73334 0.732717 5.55334 0 7.7 0C8.75 0 9.765 0.188675 10.745 0.566024C11.725 0.943373 12.6 1.48742 13.37 2.19815L11.2 9.61691H15.4L14.21 21.1229L18.2 8.24306H14L16.485 0.961691C17.0683 0.641127 17.6811 0.400704 18.3232 0.240423C18.9653 0.0801408 19.6243 0 20.3 0C22.4467 0 24.2667 0.732717 25.76 2.19815C27.2533 3.66358 28 5.44958 28 7.55614C28 8.65522 27.8483 9.6627 27.545 10.5786C27.2417 11.4945 26.6 12.5881 25.62 13.8593C24.64 15.1297 23.2283 16.7096 21.385 18.5991C19.5417 20.4886 17.0917 22.9556 14.035 26Z" fill="#DC6C2A"/>
</svg>
