<svg width="47" height="42" viewBox="0 0 47 42" fill="none" xmlns="http://www.w3.org/2000/svg">
<path d="M23.4825 21.0263V21.0513M13.4903 21.0263V21.0513M33.4747 21.0263V21.0513M1 41L4.24747 31.2628C1.44077 27.114 0.425431 22.2008 1.39024 17.4368C2.35505 12.6728 5.23436 8.38214 9.49281 5.36263C13.7513 2.34311 19.0991 0.800195 24.5419 1.02076C29.9847 1.24133 35.1522 3.21036 39.0836 6.56176C43.0149 9.91316 45.4426 14.4189 45.9152 19.2411C46.3878 24.0634 44.8732 28.874 41.653 32.7787C38.4329 36.6833 33.7262 39.4161 28.4082 40.4691C23.0901 41.5221 17.5227 40.8235 12.7409 38.5033L1 41Z" stroke="#A57F05" stroke-width="2" stroke-linecap="round" stroke-linejoin="round"/>
</svg>
