<svg width="82" height="82" viewBox="0 0 82 82" fill="none" xmlns="http://www.w3.org/2000/svg">
<path d="M41 82C63.6437 82 82 63.6437 82 41C82 18.3563 63.6437 0 41 0C18.3563 0 0 18.3563 0 41C0 63.6437 18.3563 82 41 82Z" fill="#DAC14A"/>
<path d="M47.3943 42.7621C58.081 44.7759 62.509 50.1802 62.509 50.1802C64.3435 53.3592 62.509 57.7318 62.509 57.7318C56.3114 65.4475 46.9081 66.2579 40.9659 66.2579C35.0257 66.2579 25.6224 65.4475 19.4247 57.7318C19.4247 57.7318 17.5902 53.3592 19.4247 50.1802C19.4247 50.1802 23.8527 44.7778 34.5394 42.7621" fill="white"/>
<path d="M40.967 44.7777C47.9602 44.7777 53.6293 38.2677 53.6293 30.237C53.6293 22.2064 47.9602 15.6964 40.967 15.6964C33.9738 15.6964 28.3047 22.2064 28.3047 30.237C28.3047 38.2677 33.9738 44.7777 40.967 44.7777Z" fill="white"/>
</svg>
