<svg width="28" height="41" viewBox="0 0 28 41" fill="none" xmlns="http://www.w3.org/2000/svg">
<path d="M19.0224 30.6228C18.2694 30.6228 17.7674 30.3718 17.0144 30.1207L14.0023 28.8657L10.9902 30.1207C10.4882 30.3718 9.73518 30.6228 8.98216 30.6228C8.48015 30.6228 8.22914 30.6228 7.72713 30.3718L6.4721 40.161L14.0023 35.1409L21.5325 40.161L20.0264 30.3718C19.7754 30.6228 19.2734 30.6228 19.0224 30.6228ZM26.3016 14.8094C26.0506 14.3074 26.0506 13.5543 26.3016 13.0523L27.8076 10.0402C28.3096 9.03622 27.8076 7.78119 26.5526 7.27918L23.2895 6.02415C22.7875 5.77314 22.2855 5.27113 22.0345 4.76912L20.7795 1.50604C20.5284 0.502012 19.7754 0 19.0224 0C18.7714 0 18.2694 0 18.0184 0.251006L14.7553 1.75704H14.0023C13.7513 1.75704 13.5003 1.75704 13.2493 1.50604L9.98619 0.251006C9.73518 0 9.23317 0 8.98216 0C8.22914 0 7.47612 0.502012 6.97411 1.25503L5.71908 4.76912C5.71908 5.27113 5.21707 5.77314 4.71505 6.02415L1.20097 7.27918C0.196942 7.53019 -0.305071 8.78522 0.196942 10.0402L1.70298 13.3033C1.95399 13.8053 1.95399 14.5584 1.70298 15.0604L0.196942 18.0724C-0.305071 19.0765 0.196942 20.3315 1.45197 20.8335L4.71505 22.0885C5.21707 22.3396 5.71908 22.8416 5.97009 23.3436L7.22512 26.6067C7.47612 27.6107 8.22914 28.1127 8.98216 28.1127C9.23317 28.1127 9.48417 28.1127 9.73518 27.8617L12.9983 26.3557C13.2493 26.3557 13.5003 26.1046 13.7513 26.1046C14.0023 26.1046 14.2533 26.1046 14.5043 26.3557L17.7674 27.8617C18.0184 28.1127 18.2694 28.1127 18.5204 28.1127C19.2734 28.1127 20.0264 27.6107 20.5284 26.8577L21.7835 23.5946C22.0345 23.0926 22.5365 22.5906 23.0385 22.3396L26.3016 21.0845C27.3056 20.5825 28.0586 19.3275 27.5566 18.3235L26.3016 14.8094ZM14.0023 24.0966C8.48015 24.0966 3.96204 19.5785 3.96204 14.0563C3.96204 8.53421 8.48015 4.0161 14.0023 4.0161C19.5244 4.0161 24.0425 8.53421 24.0425 14.0563C24.0425 19.5785 19.5244 24.0966 14.0023 24.0966Z" fill="#696F77"/>
</svg>
