<svg width="34" height="36" viewBox="0 0 34 36" fill="none" xmlns="http://www.w3.org/2000/svg">
<path d="M5.353 20H2.327C1.04183 20 0 21.0418 0 22.327V32.917C0 34.2022 1.04183 35.244 2.327 35.244H5.353C6.63817 35.244 7.68 34.2022 7.68 32.917V22.327C7.68 21.0418 6.63817 20 5.353 20Z" fill="#696F77"/>
<path d="M18.353 10H15.327C14.0418 10 13 11.0418 13 12.327V32.394C13 33.6792 14.0418 34.721 15.327 34.721H18.353C19.6382 34.721 20.68 33.6792 20.68 32.394V12.327C20.68 11.0418 19.6382 10 18.353 10Z" fill="#696F77"/>
<path d="M31.353 0H28.327C27.0418 0 26 1.04183 26 2.327V32.259C26 33.5442 27.0418 34.586 28.327 34.586H31.353C32.6382 34.586 33.68 33.5442 33.68 32.259V2.327C33.68 1.04183 32.6382 0 31.353 0Z" fill="#696F77"/>
</svg>
