<svg width="434" height="35" viewBox="0 0 434 35" fill="none" xmlns="http://www.w3.org/2000/svg">
<path d="M11.608 26.224C9.496 26.224 7.55467 25.7333 5.784 24.752C4.03467 23.7707 2.63733 22.4053 1.592 20.656C0.568 18.8853 0.056 16.9013 0.056 14.704C0.056 12.5067 0.568 10.5333 1.592 8.784C2.63733 7.03467 4.03467 5.66933 5.784 4.688C7.55467 3.70667 9.496 3.216 11.608 3.216C13.72 3.216 15.6507 3.70667 17.4 4.688C19.1707 5.66933 20.5573 7.03467 21.56 8.784C22.584 10.5333 23.096 12.5067 23.096 14.704C23.096 16.9013 22.584 18.8853 21.56 20.656C20.536 22.4053 19.1493 23.7707 17.4 24.752C15.6507 25.7333 13.72 26.224 11.608 26.224ZM11.608 21.232C13.4 21.232 14.8293 20.6347 15.896 19.44C16.984 18.2453 17.528 16.6667 17.528 14.704C17.528 12.72 16.984 11.1413 15.896 9.968C14.8293 8.77333 13.4 8.176 11.608 8.176C9.79467 8.176 8.344 8.76267 7.256 9.936C6.18933 11.1093 5.656 12.6987 5.656 14.704C5.656 16.688 6.18933 18.2773 7.256 19.472C8.344 20.6453 9.79467 21.232 11.608 21.232ZM34.2683 26.256C32.5189 26.256 30.9403 25.8827 29.5323 25.136C28.1456 24.3893 27.0469 23.3227 26.2363 21.936C25.4469 20.5493 25.0523 18.928 25.0523 17.072C25.0523 15.2373 25.4576 13.6267 26.2682 12.24C27.0789 10.832 28.1883 9.75467 29.5963 9.008C31.0043 8.26133 32.5829 7.888 34.3323 7.888C36.0816 7.888 37.6603 8.26133 39.0683 9.008C40.4763 9.75467 41.5856 10.832 42.3963 12.24C43.2069 13.6267 43.6123 15.2373 43.6123 17.072C43.6123 18.9067 43.1963 20.528 42.3643 21.936C41.5536 23.3227 40.4336 24.3893 39.0043 25.136C37.5963 25.8827 36.0176 26.256 34.2683 26.256ZM34.2683 21.52C35.3136 21.52 36.1989 21.136 36.9243 20.368C37.6709 19.6 38.0443 18.5013 38.0443 17.072C38.0443 15.6427 37.6816 14.544 36.9563 13.776C36.2523 13.008 35.3776 12.624 34.3323 12.624C33.2656 12.624 32.3803 13.008 31.6763 13.776C30.9723 14.5227 30.6203 15.6213 30.6203 17.072C30.6203 18.5013 30.9616 19.6 31.6443 20.368C32.3483 21.136 33.2229 21.52 34.2683 21.52ZM51.9873 10.672C52.5206 9.84 53.2566 9.168 54.1953 8.656C55.1339 8.144 56.2326 7.888 57.4913 7.888C58.9633 7.888 60.2966 8.26133 61.4913 9.008C62.6859 9.75467 63.6246 10.8213 64.3073 12.208C65.0113 13.5947 65.3633 15.2053 65.3633 17.04C65.3633 18.8747 65.0113 20.496 64.3073 21.904C63.6246 23.2907 62.6859 24.368 61.4913 25.136C60.2966 25.8827 58.9633 26.256 57.4913 26.256C56.2539 26.256 55.1553 26 54.1953 25.488C53.2566 24.976 52.5206 24.3147 51.9873 23.504V34.512H46.5153V8.144H51.9873V10.672ZM59.7953 17.04C59.7953 15.6747 59.4113 14.608 58.6433 13.84C57.8966 13.0507 56.9686 12.656 55.8593 12.656C54.7713 12.656 53.8433 13.0507 53.0753 13.84C52.3286 14.6293 51.9553 15.7067 51.9553 17.072C51.9553 18.4373 52.3286 19.5147 53.0753 20.304C53.8433 21.0933 54.7713 21.488 55.8593 21.488C56.9473 21.488 57.8753 21.0933 58.6433 20.304C59.4113 19.4933 59.7953 18.4053 59.7953 17.04ZM75.498 26.256C73.9407 26.256 72.554 25.9893 71.338 25.456C70.122 24.9227 69.162 24.1973 68.458 23.28C67.754 22.3413 67.3593 21.296 67.274 20.144H72.682C72.746 20.7627 73.034 21.264 73.546 21.648C74.058 22.032 74.6873 22.224 75.434 22.224C76.1167 22.224 76.6393 22.096 77.002 21.84C77.386 21.5627 77.578 21.2107 77.578 20.784C77.578 20.272 77.3113 19.8987 76.778 19.664C76.2447 19.408 75.3807 19.1307 74.186 18.832C72.906 18.5333 71.8393 18.224 70.986 17.904C70.1327 17.5627 69.3967 17.04 68.778 16.336C68.1593 15.6107 67.85 14.64 67.85 13.424C67.85 12.4 68.1273 11.472 68.682 10.64C69.258 9.78667 70.09 9.11467 71.178 8.624C72.2873 8.13333 73.5993 7.888 75.114 7.888C77.354 7.888 79.114 8.44267 80.394 9.552C81.6953 10.6613 82.442 12.1333 82.634 13.968H77.578C77.4927 13.3493 77.2153 12.8587 76.746 12.496C76.298 12.1333 75.7007 11.952 74.954 11.952C74.314 11.952 73.8233 12.08 73.482 12.336C73.1407 12.5707 72.97 12.9013 72.97 13.328C72.97 13.84 73.2367 14.224 73.77 14.48C74.3247 14.736 75.178 14.992 76.33 15.248C77.6527 15.5893 78.73 15.9307 79.562 16.272C80.394 16.592 81.1193 17.1253 81.738 17.872C82.378 18.5973 82.7087 19.5787 82.73 20.816C82.73 21.8613 82.4313 22.8 81.834 23.632C81.258 24.4427 80.4153 25.0827 79.306 25.552C78.218 26.0213 76.9487 26.256 75.498 26.256ZM93.2778 2.736L92.6378 18.064H87.9978L87.3578 2.736H93.2778ZM90.3978 26.256C89.4378 26.256 88.6484 25.9787 88.0298 25.424C87.4324 24.848 87.1338 24.144 87.1338 23.312C87.1338 22.4587 87.4324 21.744 88.0298 21.168C88.6484 20.592 89.4378 20.304 90.3978 20.304C91.3364 20.304 92.1044 20.592 92.7018 21.168C93.3204 21.744 93.6298 22.4587 93.6298 23.312C93.6298 24.144 93.3204 24.848 92.7018 25.424C92.1044 25.9787 91.3364 26.256 90.3978 26.256ZM121.55 3.536V7.92H115.598V26H110.126V7.92H104.174V3.536H121.55ZM135.273 7.952C137.321 7.952 138.963 8.63467 140.201 10C141.438 11.344 142.057 13.2 142.057 15.568V26H136.617V16.304C136.617 15.1093 136.307 14.1813 135.689 13.52C135.07 12.8587 134.238 12.528 133.193 12.528C132.147 12.528 131.315 12.8587 130.697 13.52C130.078 14.1813 129.769 15.1093 129.769 16.304V26H124.297V2.32H129.769V10.544C130.323 9.75467 131.081 9.12533 132.041 8.656C133.001 8.18667 134.078 7.952 135.273 7.952ZM162.691 16.784C162.691 17.296 162.659 17.8293 162.595 18.384H150.211C150.296 19.4933 150.648 20.3467 151.267 20.944C151.907 21.52 152.686 21.808 153.603 21.808C154.968 21.808 155.918 21.232 156.451 20.08H162.275C161.976 21.2533 161.432 22.3093 160.643 23.248C159.875 24.1867 158.904 24.9227 157.731 25.456C156.558 25.9893 155.246 26.256 153.795 26.256C152.046 26.256 150.488 25.8827 149.123 25.136C147.758 24.3893 146.691 23.3227 145.923 21.936C145.155 20.5493 144.771 18.928 144.771 17.072C144.771 15.216 145.144 13.5947 145.891 12.208C146.659 10.8213 147.726 9.75467 149.091 9.008C150.456 8.26133 152.024 7.888 153.795 7.888C155.523 7.888 157.059 8.25067 158.403 8.976C159.747 9.70133 160.792 10.736 161.539 12.08C162.307 13.424 162.691 14.992 162.691 16.784ZM157.091 15.344C157.091 14.4053 156.771 13.6587 156.131 13.104C155.491 12.5493 154.691 12.272 153.731 12.272C152.814 12.272 152.035 12.5387 151.395 13.072C150.776 13.6053 150.392 14.3627 150.243 15.344H157.091ZM171.05 11.12C171.69 10.1387 172.49 9.37067 173.45 8.816C174.41 8.24 175.476 7.952 176.65 7.952V13.744H175.146C173.78 13.744 172.756 14.0427 172.074 14.64C171.391 15.216 171.05 16.24 171.05 17.712V26H165.578V8.144H171.05V11.12ZM196.097 16.784C196.097 17.296 196.065 17.8293 196.001 18.384H183.617C183.703 19.4933 184.055 20.3467 184.673 20.944C185.313 21.52 186.092 21.808 187.009 21.808C188.375 21.808 189.324 21.232 189.857 20.08H195.681C195.383 21.2533 194.839 22.3093 194.049 23.248C193.281 24.1867 192.311 24.9227 191.137 25.456C189.964 25.9893 188.652 26.256 187.201 26.256C185.452 26.256 183.895 25.8827 182.529 25.136C181.164 24.3893 180.097 23.3227 179.329 21.936C178.561 20.5493 178.177 18.928 178.177 17.072C178.177 15.216 178.551 13.5947 179.297 12.208C180.065 10.8213 181.132 9.75467 182.497 9.008C183.863 8.26133 185.431 7.888 187.201 7.888C188.929 7.888 190.465 8.25067 191.809 8.976C193.153 9.70133 194.199 10.736 194.945 12.08C195.713 13.424 196.097 14.992 196.097 16.784ZM190.497 15.344C190.497 14.4053 190.177 13.6587 189.537 13.104C188.897 12.5493 188.097 12.272 187.137 12.272C186.22 12.272 185.441 12.5387 184.801 13.072C184.183 13.6053 183.799 14.3627 183.649 15.344H190.497ZM208.517 6.288C207.557 6.288 206.768 6.01067 206.149 5.456C205.552 4.88 205.253 4.176 205.253 3.344C205.253 2.49067 205.552 1.78667 206.149 1.232C206.768 0.655998 207.557 0.367998 208.517 0.367998C209.456 0.367998 210.224 0.655998 210.821 1.232C211.44 1.78667 211.749 2.49067 211.749 3.344C211.749 4.176 211.44 4.88 210.821 5.456C210.224 6.01067 209.456 6.288 208.517 6.288ZM211.237 8.144V26H205.765V8.144H211.237ZM222.467 26.256C220.909 26.256 219.523 25.9893 218.307 25.456C217.091 24.9227 216.131 24.1973 215.427 23.28C214.723 22.3413 214.328 21.296 214.243 20.144H219.651C219.715 20.7627 220.003 21.264 220.515 21.648C221.027 22.032 221.656 22.224 222.403 22.224C223.085 22.224 223.608 22.096 223.971 21.84C224.355 21.5627 224.547 21.2107 224.547 20.784C224.547 20.272 224.28 19.8987 223.747 19.664C223.213 19.408 222.349 19.1307 221.155 18.832C219.875 18.5333 218.808 18.224 217.955 17.904C217.101 17.5627 216.365 17.04 215.747 16.336C215.128 15.6107 214.819 14.64 214.819 13.424C214.819 12.4 215.096 11.472 215.651 10.64C216.227 9.78667 217.059 9.11467 218.147 8.624C219.256 8.13333 220.568 7.888 222.083 7.888C224.323 7.888 226.083 8.44267 227.363 9.552C228.664 10.6613 229.411 12.1333 229.603 13.968H224.547C224.461 13.3493 224.184 12.8587 223.715 12.496C223.267 12.1333 222.669 11.952 221.923 11.952C221.283 11.952 220.792 12.08 220.451 12.336C220.109 12.5707 219.939 12.9013 219.939 13.328C219.939 13.84 220.205 14.224 220.739 14.48C221.293 14.736 222.147 14.992 223.299 15.248C224.621 15.5893 225.699 15.9307 226.531 16.272C227.363 16.592 228.088 17.1253 228.707 17.872C229.347 18.5973 229.677 19.5787 229.699 20.816C229.699 21.8613 229.4 22.8 228.803 23.632C228.227 24.4427 227.384 25.0827 226.275 25.552C225.187 26.0213 223.917 26.256 222.467 26.256ZM250.708 7.952C252.798 7.952 254.462 8.63467 255.7 10C256.958 11.344 257.588 13.2 257.588 15.568V26H252.148V16.304C252.148 15.1093 251.838 14.1813 251.22 13.52C250.601 12.8587 249.769 12.528 248.724 12.528C247.678 12.528 246.846 12.8587 246.228 13.52C245.609 14.1813 245.3 15.1093 245.3 16.304V26H239.828V8.144H245.3V10.512C245.854 9.72267 246.601 9.104 247.54 8.656C248.478 8.18667 249.534 7.952 250.708 7.952ZM269.518 26.256C267.769 26.256 266.19 25.8827 264.782 25.136C263.396 24.3893 262.297 23.3227 261.486 21.936C260.697 20.5493 260.302 18.928 260.302 17.072C260.302 15.2373 260.708 13.6267 261.518 12.24C262.329 10.832 263.438 9.75467 264.846 9.008C266.254 8.26133 267.833 7.888 269.582 7.888C271.332 7.888 272.91 8.26133 274.318 9.008C275.726 9.75467 276.836 10.832 277.646 12.24C278.457 13.6267 278.862 15.2373 278.862 17.072C278.862 18.9067 278.446 20.528 277.614 21.936C276.804 23.3227 275.684 24.3893 274.254 25.136C272.846 25.8827 271.268 26.256 269.518 26.256ZM269.518 21.52C270.564 21.52 271.449 21.136 272.174 20.368C272.921 19.6 273.294 18.5013 273.294 17.072C273.294 15.6427 272.932 14.544 272.206 13.776C271.502 13.008 270.628 12.624 269.582 12.624C268.516 12.624 267.63 13.008 266.926 13.776C266.222 14.5227 265.87 15.6213 265.87 17.072C265.87 18.5013 266.212 19.6 266.894 20.368C267.598 21.136 268.473 21.52 269.518 21.52ZM287.459 17.04C287.459 15.2053 287.8 13.5947 288.483 12.208C289.187 10.8213 290.136 9.75467 291.331 9.008C292.525 8.26133 293.859 7.888 295.331 7.888C296.504 7.888 297.571 8.13333 298.531 8.624C299.512 9.11467 300.28 9.776 300.835 10.608V2.32H306.307V26H300.835V23.44C300.323 24.2933 299.587 24.976 298.627 25.488C297.688 26 296.589 26.256 295.331 26.256C293.859 26.256 292.525 25.8827 291.331 25.136C290.136 24.368 289.187 23.2907 288.483 21.904C287.8 20.496 287.459 18.8747 287.459 17.04ZM300.835 17.072C300.835 15.7067 300.451 14.6293 299.683 13.84C298.936 13.0507 298.019 12.656 296.931 12.656C295.843 12.656 294.915 13.0507 294.147 13.84C293.4 14.608 293.027 15.6747 293.027 17.04C293.027 18.4053 293.4 19.4933 294.147 20.304C294.915 21.0933 295.843 21.488 296.931 21.488C298.019 21.488 298.936 21.0933 299.683 20.304C300.451 19.5147 300.835 18.4373 300.835 17.072ZM309.177 17.04C309.177 15.2053 309.519 13.5947 310.201 12.208C310.905 10.8213 311.855 9.75467 313.049 9.008C314.244 8.26133 315.577 7.888 317.049 7.888C318.308 7.888 319.407 8.144 320.345 8.656C321.305 9.168 322.041 9.84 322.553 10.672V8.144H328.025V26H322.553V23.472C322.02 24.304 321.273 24.976 320.313 25.488C319.375 26 318.276 26.256 317.017 26.256C315.567 26.256 314.244 25.8827 313.049 25.136C311.855 24.368 310.905 23.2907 310.201 21.904C309.519 20.496 309.177 18.8747 309.177 17.04ZM322.553 17.072C322.553 15.7067 322.169 14.6293 321.401 13.84C320.655 13.0507 319.737 12.656 318.649 12.656C317.561 12.656 316.633 13.0507 315.865 13.84C315.119 14.608 314.745 15.6747 314.745 17.04C314.745 18.4053 315.119 19.4933 315.865 20.304C316.633 21.0933 317.561 21.488 318.649 21.488C319.737 21.488 320.655 21.0933 321.401 20.304C322.169 19.5147 322.553 18.4373 322.553 17.072ZM341.936 21.36V26H339.152C337.168 26 335.621 25.52 334.512 24.56C333.403 23.5787 332.848 21.9893 332.848 19.792V12.688H330.672V8.144H332.848V3.792H338.32V8.144H341.904V12.688H338.32V19.856C338.32 20.3893 338.448 20.7733 338.704 21.008C338.96 21.2427 339.387 21.36 339.984 21.36H341.936ZM343.896 17.04C343.896 15.2053 344.237 13.5947 344.92 12.208C345.624 10.8213 346.573 9.75467 347.768 9.008C348.963 8.26133 350.296 7.888 351.768 7.888C353.027 7.888 354.125 8.144 355.064 8.656C356.024 9.168 356.76 9.84 357.272 10.672V8.144H362.744V26H357.272V23.472C356.739 24.304 355.992 24.976 355.032 25.488C354.093 26 352.995 26.256 351.736 26.256C350.285 26.256 348.963 25.8827 347.768 25.136C346.573 24.368 345.624 23.2907 344.92 21.904C344.237 20.496 343.896 18.8747 343.896 17.04ZM357.272 17.072C357.272 15.7067 356.888 14.6293 356.12 13.84C355.373 13.0507 354.456 12.656 353.368 12.656C352.28 12.656 351.352 13.0507 350.584 13.84C349.837 14.608 349.464 15.6747 349.464 17.04C349.464 18.4053 349.837 19.4933 350.584 20.304C351.352 21.0933 352.28 21.488 353.368 21.488C354.456 21.488 355.373 21.0933 356.12 20.304C356.888 19.5147 357.272 18.4373 357.272 17.072ZM391.724 8.144L380.524 34.48H374.636L378.732 25.392L371.468 8.144H377.58L381.708 19.312L385.804 8.144H391.724ZM410.535 16.784C410.535 17.296 410.503 17.8293 410.439 18.384H398.055C398.14 19.4933 398.492 20.3467 399.111 20.944C399.751 21.52 400.529 21.808 401.447 21.808C402.812 21.808 403.761 21.232 404.295 20.08H410.119C409.82 21.2533 409.276 22.3093 408.487 23.248C407.719 24.1867 406.748 24.9227 405.575 25.456C404.401 25.9893 403.089 26.256 401.639 26.256C399.889 26.256 398.332 25.8827 396.967 25.136C395.601 24.3893 394.535 23.3227 393.767 21.936C392.999 20.5493 392.615 18.928 392.615 17.072C392.615 15.216 392.988 13.5947 393.735 12.208C394.503 10.8213 395.569 9.75467 396.935 9.008C398.3 8.26133 399.868 7.888 401.639 7.888C403.367 7.888 404.903 8.25067 406.247 8.976C407.591 9.70133 408.636 10.736 409.383 12.08C410.151 13.424 410.535 14.992 410.535 16.784ZM404.935 15.344C404.935 14.4053 404.615 13.6587 403.975 13.104C403.335 12.5493 402.535 12.272 401.575 12.272C400.657 12.272 399.879 12.5387 399.239 13.072C398.62 13.6053 398.236 14.3627 398.087 15.344H404.935ZM423.374 21.36V26H420.59C418.606 26 417.059 25.52 415.95 24.56C414.84 23.5787 414.286 21.9893 414.286 19.792V12.688H412.11V8.144H414.286V3.792H419.758V8.144H423.342V12.688H419.758V19.856C419.758 20.3893 419.886 20.7733 420.142 21.008C420.398 21.2427 420.824 21.36 421.422 21.36H423.374ZM433.622 2.736L432.982 18.064H428.342L427.702 2.736H433.622ZM430.742 26.256C429.782 26.256 428.992 25.9787 428.374 25.424C427.776 24.848 427.478 24.144 427.478 23.312C427.478 22.4587 427.776 21.744 428.374 21.168C428.992 20.592 429.782 20.304 430.742 20.304C431.68 20.304 432.448 20.592 433.046 21.168C433.664 21.744 433.974 22.4587 433.974 23.312C433.974 24.144 433.664 24.848 433.046 25.424C432.448 25.9787 431.68 26.256 430.742 26.256Z" fill="#555A61"/>
</svg>
