<svg width="291" height="334" viewBox="0 0 291 334" fill="none" xmlns="http://www.w3.org/2000/svg">
<path d="M226.724 21.041C224.891 18.541 220.393 17.541 237.593 5.54101C259.093 -9.45899 279.593 16.541 274.593 28.041C270.593 37.241 258.927 45.541 253.593 48.541C264.26 62.041 286.093 95.341 288.093 120.541C290.593 152.041 295.593 168.541 274.593 188.541C269.083 193.789 258.443 197.97 244.706 201.02C253.514 211.985 267.176 236.505 264.594 264.541C261.094 302.541 237.593 248.041 237.593 250.041C237.593 252.041 252.855 278.541 226.724 300.041L222.594 318.541C223.971 319.374 226.724 322.241 226.724 327.041C226.724 333.041 210.594 335.541 201.594 327.041C194.394 320.241 195.927 312.558 197.594 309.566C192.232 309.716 186.812 309.297 181.594 308.561V327.041C176.26 330.041 163.594 335.141 155.594 331.541C147.594 327.941 154.927 321.374 159.594 318.541L155.594 302.621C150.551 301.154 146.959 300.041 145.594 300.041C140.336 300.041 130.469 283.913 134.168 257.041C131.437 257.138 128.918 257.193 126.594 257.21V315.541C144.594 317.541 135.594 322.041 136.094 325.041C136.594 328.041 117.31 329.041 113.594 327.541C109.877 326.041 109.594 327.041 106.083 320.855C103.275 315.906 112.398 314.584 117.31 314.541V257.041C94.1381 255.882 99.1373 249.232 91.5938 245.041C84.3942 241.041 101.657 237.374 111.188 236.041C110.828 234.449 110.385 232.365 109.594 229.541C106.794 219.541 119.76 208.022 126.594 203.513C117.39 202.22 108.621 200.566 100.593 198.541C43.0932 184.041 65.0932 111.041 87.5932 77.041C93.3855 68.2883 99.1289 58.1769 106.083 48.541C98.5863 48.2077 84.3928 42.241 87.5932 21.041C91.5938 -5.45898 130.594 1.62247 136.594 20.0817C156.389 9.38278 184.219 6.4797 226.724 21.041Z" fill="#454A51"/>
<path d="M226.724 21.041C224.891 18.541 220.393 17.541 237.593 5.54101C259.093 -9.45899 279.593 16.541 274.593 28.041C270.593 37.241 258.927 45.541 253.593 48.541M226.724 21.041C184.219 6.4797 156.389 9.38278 136.594 20.0817M226.724 21.041L253.593 48.541M253.593 48.541C264.26 62.041 286.093 95.341 288.093 120.541C290.593 152.041 295.593 168.541 274.593 188.541C258.49 203.877 198.583 210.099 145.594 205.63M106.083 48.541C99.1289 58.1769 93.3855 68.2883 87.5932 77.041C65.0932 111.041 43.0932 184.041 100.593 198.541C108.621 200.566 117.39 202.22 126.594 203.513M106.083 48.541C98.5863 48.2077 84.3928 42.241 87.5932 21.041C91.5938 -5.45898 130.594 1.62247 136.594 20.0817M106.083 48.541C114.039 37.5168 123.581 27.1149 136.594 20.0817M242.594 198.541C251.094 207.874 267.394 234.141 264.594 264.541C261.094 302.541 237.593 248.041 237.593 250.041C237.593 252.041 252.855 278.541 226.724 300.041M226.724 300.041L222.594 318.541C223.971 319.374 226.724 322.241 226.724 327.041C226.724 333.041 210.594 335.541 201.594 327.041C194.394 320.241 195.927 312.558 197.594 309.566M226.724 300.041C218.573 306.748 208.196 309.27 197.594 309.566M145.594 205.63C139.127 205.084 132.763 204.38 126.594 203.513M145.594 205.63C145.594 206.494 145.181 209.331 143.96 215.041M126.594 203.513C119.76 208.022 106.794 219.541 109.594 229.541C110.385 232.365 110.828 234.449 111.188 236.041M143.96 215.041C142.631 221.254 140.346 230.868 136.594 245.041C135.481 249.245 134.689 253.25 134.168 257.041M143.96 215.041L136.594 223.541C145.76 228.374 160.394 239.441 145.594 245.041C127.094 252.041 135.398 250.041 122.594 245.041C112.682 241.171 112.423 241.495 111.188 236.041M197.594 309.566C192.232 309.716 186.812 309.297 181.594 308.561M181.594 308.561V327.041C176.26 330.041 163.594 335.141 155.594 331.541C147.594 327.941 154.927 321.374 159.594 318.541L155.594 302.621M181.594 308.561C171.578 307.149 162.302 304.572 155.594 302.621M155.594 302.621C150.551 301.154 146.959 300.041 145.594 300.041C140.336 300.041 130.469 283.913 134.168 257.041M111.188 236.041C101.657 237.374 84.3942 241.041 91.5938 245.041C99.1373 249.232 94.1381 255.882 117.31 257.041M134.168 257.041C131.437 257.138 128.918 257.193 126.594 257.21M117.31 257.041C120.003 257.176 123.076 257.236 126.594 257.21M117.31 257.041V314.541M126.594 257.21V315.541M117.31 314.541V318.541H126.594V315.541M117.31 314.541C112.398 314.584 103.275 315.906 106.083 320.855C109.594 327.041 109.877 326.041 113.594 327.541C117.31 329.041 136.594 328.041 136.094 325.041C135.594 322.041 144.594 317.541 126.594 315.541" stroke="#2E3236"/>
<path d="M184.306 115.546C177.506 112.746 171.139 114.379 168.806 115.546C164.306 118.546 168.806 122.546 175.806 125.546C182.806 128.546 192.806 119.046 184.306 115.546Z" fill="#2E3236" stroke="#2E3236"/>
<path d="M226.141 16.6745C228.475 16.3827 231.372 13.0967 233.48 11.9258C236.419 10.2929 239.495 8.40846 242.113 6.31374C247.414 2.07304 255.311 3.73226 261.156 5.40237C265.265 6.5763 269.495 14.416 271.469 17.9696C272.961 20.6544 273.482 23.8705 270.606 26.1719C269.293 27.2219 271.037 30.0281 271.037 27.467C271.037 25.2469 271.323 26.6343 269.742 27.8987C267.464 29.721 266.887 33.3607 265.665 35.6693C264.14 38.549 262.694 39.5328 260.485 41.5212C258.095 43.6716 255.512 45.6446 252.043 46.0301C249.746 46.2853 248.628 42.1357 246.67 40.1781C244.481 37.9888 244.366 34.6438 242.353 32.4075C239.973 29.7626 237.436 29.0657 234.966 26.8434C231.361 23.5989 225.591 15.1243 233.911 14.0843C236.744 13.7303 239.495 11.171 241.25 9.76733C244.853 6.88533 251.122 6.19973 255.736 7.2251C260.104 8.19581 247.327 10.3128 243.025 11.5421C241.539 11.9667 235.833 14.4797 235.59 15.3315C233.956 21.0516 242.901 22.8091 244.32 29.1938C244.81 31.3986 247.443 34.911 248.589 36.9164C251.039 41.2041 251.673 38.1152 254.201 36.1489C255.683 34.9965 256.36 34.4133 256.36 36.7245C256.36 39.89 255.39 40.5502 258.086 39.1229C260.713 37.7324 264.602 33.8203 264.994 30.4889C265.179 28.9107 268.312 22.3738 269.502 21.1834C271.565 19.1209 266.604 26.5446 264.13 28.0906C261.603 29.6698 259.679 33.1781 258.278 35.6693C257.963 36.2298 261.451 32.126 262.403 31.5441C264.724 30.1262 260.381 31.727 259.621 32.2157C258.454 32.9663 251.225 36.9117 251.371 36.7245C253.845 33.5435 257.266 31.6926 260.005 28.954C261.83 27.1291 264.314 26.0246 266.289 24.4451C267.14 23.7639 268.121 22.3476 268.399 21.3752C268.968 19.3855 265.968 22.6799 265.425 23.102C263.142 24.8775 259.48 29.076 256.791 29.6735C255.275 30.0104 254.374 32.9831 252.57 32.9831C250.113 32.9831 255.125 28.7717 256.647 26.8434C257.456 25.8197 258.46 24.9344 259.381 24.0134C260.982 22.4124 264.772 18.4972 267.104 18.4972C267.325 18.4972 264.389 21.5481 263.698 21.8549C262.435 22.4163 260.399 23.2701 259.381 24.0614C257.95 25.1746 256.493 25.5404 255.064 26.6516C253.75 27.6735 252.602 28.3445 250.939 28.7141C250.523 28.8067 251.721 28.7326 252.043 28.3304C253.789 26.1476 257.804 24.7977 259.813 22.2866C262.034 19.51 265.335 18.1808 262.595 14.7559C258.956 10.2072 265.376 10.2391 265.857 14.0843C265.914 14.5391 268.564 16.2072 267.584 15.6193C266.076 14.7144 265.088 13.3587 263.267 12.5494C260.973 11.5298 255.439 11.4113 259.813 9.0958C261.545 8.17895 261.884 6.9691 260.485 9.76733C259.848 11.0399 259.481 13.8521 258.758 14.7559C256.776 17.2328 258.171 21.7493 256.168 24.2532C254.626 26.1801 253.065 28.8423 250.987 30.297C248.933 31.7349 245.775 24.6971 244.944 23.7736C243.834 22.541 239.198 19.559 240.435 17.9696C242.64 15.134 243.39 12.7517 246.43 11.0624C248.423 9.95562 249.677 11.4941 251.611 11.4941C252.288 11.4941 255.372 10.546 254.969 11.1104C253.267 13.492 250.556 16.0145 249.548 18.785C249.184 19.7862 249.631 23.358 251.179 21.4232C251.999 20.3989 253.199 19.0679 254.153 18.1135C256.709 15.558 250.382 24.2812 248.589 27.419C248.478 27.6132 248.999 18.1689 248.157 15.8111C247.844 14.9332 247.756 9.0958 247.294 9.0958C246.422 9.0958 242.697 16.0161 242.161 17.0103C239.125 22.6491 247.356 13.6703 248.973 14.1323C250.295 14.5101 251.143 16.501 252.906 15.6193C256.044 14.0504 254.677 17.9952 253.961 20.32C252.963 23.5632 254.486 23.1073 251.179 22.7183C249.653 22.5388 248.738 20.9915 246.862 20.9915C243.472 20.9915 241.499 21.3424 238.42 22.5264C233.969 24.2384 237.613 25.9585 240.818 27.7068C244.644 29.7936 250.735 32.8947 253.386 36.3408C254.367 37.6163 257.193 39.7765 256.168 41.7131C254.612 44.6507 254.889 41.6789 256.743 39.9863C259.344 37.6118 262.82 35.4188 265.665 33.5587C267.725 32.2122 269.284 29.9163 271.901 29.6255C273.073 29.4952 275.384 27.1509 272.764 29.6255C271.64 30.6876 271.141 31.9859 269.982 32.8872C269.587 33.1941 271.921 26.5732 272.764 25.3085" stroke="#2C3035" stroke-width="5" stroke-linecap="round"/>
<path d="M238.231 12.3571C236.283 12.5736 233.629 15.2974 233.099 17.1538C232.667 18.6637 234.416 18.2638 235.209 18.8806C235.896 19.4148 235.673 22.0731 236.121 21.3269C237.211 19.51 236.873 17.2776 238.615 15.8107C241.594 13.3019 249.079 12.5486 252.909 12.3571C260.947 11.9552 262.109 18.6239 261.495 25.6918C261.163 29.5132 257.734 40.7533 252.477 40.7533C249.227 40.7533 247.259 32.8863 246.194 30.4885C245.068 27.9566 241.826 27.8984 240.15 25.3081C239.163 23.7834 237.592 22.7821 236.504 21.4228C235.707 20.4263 237.985 25.6694 239.574 26.1235C246.624 28.1379 255.07 27.0349 262.406 27.0349C265.137 27.0349 265.86 27.7573 265.86 30.4885C265.86 32.6906 267.16 36.0842 268.45 32.2153" stroke="#2C3035" stroke-width="5" stroke-linecap="round"/>
<path d="M87.9966 32.2158C84.2108 28.8085 84.6364 28.5838 88.1884 24.637C89.647 23.0165 89.242 18.9592 91.0185 17.538C91.7059 16.988 92.3136 14.5472 92.3136 13.6527C92.3136 12.1236 93.9612 11.0435 94.7119 9.76741C95.7528 7.99786 100.33 7.80815 102.243 6.74551C112.044 1.30023 125.019 7.84059 131.646 14.4681C132.302 15.1245 136.687 20.8192 133.757 20.9916C132.133 21.0871 128.73 22.7424 127.713 24.0135C125.614 26.6376 120.065 32.2424 116.968 33.1271C113.408 34.1445 110.665 40.5749 108.718 43.0082C106.308 46.0207 105.448 46.6353 101.139 45.3586C98.6379 44.6174 95.4641 43.725 94.0404 41.2335C91.6846 37.1108 89.8831 30.0346 92.1217 25.3086C92.8522 23.7663 94.9685 19.3857 96.1988 18.4014C97.0417 17.7271 97.2583 16.2199 97.9736 15.8112C99.1223 15.1548 100.898 14.3743 101.619 13.221C103.043 10.9434 108.377 10.6308 102.195 10.6308C97.9353 10.6308 93.8511 9.88707 91.642 14.0844C90.0512 17.107 88.777 19.8539 88.0445 23.1501C87.8045 24.2303 87.7401 26.3537 88.0445 27.4191C88.3834 28.6052 90.4657 25.5589 90.7786 25.3086C95.0189 21.9164 99.6402 17.0733 103.106 12.8373C104.755 10.8218 108.722 7.17721 111.308 7.17721C113.657 7.17721 116.82 8.30553 118.647 9.76741C120.619 11.3451 124.042 11.1475 125.794 12.5495C128.128 14.4166 132.967 13.0115 130.735 17.9217C129.968 19.6078 127.629 22.0407 125.986 22.9102C123.486 24.2337 121.167 25.2039 118.647 26.6037C116.397 27.8535 115.102 29.8684 113.035 31.1605C109.765 33.2041 108.259 42.8103 103.106 41.6652C101.576 41.3253 98.1684 37.0555 97.3021 35.6693C95.9187 33.4559 94.2515 31.4813 94.9517 28.3305C96.105 23.1408 101.677 18.8713 106.512 17.49C109.195 16.7234 107.078 10.6308 111.308 10.6308C112.747 10.6308 114.186 10.6308 115.625 10.6308C118.305 10.6308 120.475 12.3576 122.964 12.3576C125.377 12.3576 128.477 14.9545 127.041 17.538C125.473 20.3606 121.817 21.7369 119.511 23.5818C115.387 26.8806 111.417 31.0899 107.903 35.1897C106.392 36.9521 101.236 35.4781 99.8923 34.1344C98.4092 32.6514 98.7097 26.7534 100.516 25.3086C105.081 21.6567 107.073 15.5533 113.467 14.1324C116.751 13.4025 122.532 11.4123 122.532 16.2429C122.532 19.9918 121.326 21.1821 118.215 22.9102C114.387 25.037 109.239 28.6249 106.32 31.5442C104.014 33.8502 102.674 32.0716 102.674 29.1939C102.674 25.9196 104.715 24.6114 106.799 22.5265C107.913 21.413 111.207 18.862 112.651 18.4494C114.216 18.0022 115.928 17.6402 117.304 16.7226C118.773 15.7434 119.874 18.0859 118.887 19.0729C114.715 23.2447 101.921 22.3189 105.936 31.3524C107.797 35.5396 104.95 36.3238 102.243 37.8278C99.5488 39.3244 99.0467 42.5077 95.959 40.3701C94.1892 39.1448 90.2375 36.0961 88.86 34.3743C86.9939 32.0416 89.688 28.5381 91.4502 26.5557C93.0366 24.771 101.325 15.9998 97.4939 14.0844" stroke="#2C3035" stroke-width="5" stroke-linecap="round"/>
<path d="M135.651 56.6777C113.651 64.2777 110.151 82.5111 111.151 90.6777C124.654 117.678 148.648 100.678 154.648 90.6777C160.648 80.6777 163.151 47.1777 135.651 56.6777Z" fill="#2E3236" stroke="#2E3236"/>
<path d="M224.88 56.6777C246.88 64.2777 250.38 82.5111 249.38 90.6777C235.877 117.678 211.883 100.678 205.883 90.6777C199.883 80.6777 197.38 47.1777 224.88 56.6777Z" fill="#2E3236" stroke="#2E3236"/>
<path d="M130 73H122L121 82L125 86.5H136.5L140.5 85.5L147.5 78.5L148 76.5H144.5L140.5 82L134 82.5L130.5 79L130 73Z" fill="white" stroke="#2E3236"/>
<path d="M230.531 73H238.531L239.531 82L235.531 86.5H224.031L220.031 85.5L213.031 78.5L212.531 76.5H216.031L220.031 82L226.531 82.5L230.031 79L230.531 73Z" fill="white" stroke="#2E3236"/>
<path d="M135 76H132V80H135V76Z" fill="white" stroke="#2E3236"/>
<path d="M225.531 76H228.531V80H225.531V76Z" fill="white" stroke="#2E3236"/>
<path d="M161 165.001C173.833 162.334 201.4 158.601 209 165.001" stroke="#2E3236" stroke-width="5"/>
<path d="M5.09663 96C5.89663 91.2 12.0966 86.6667 15.0966 85C18.5995 85 21.5938 85 23.5938 89C25.5938 93 19.0966 103.5 15.0966 103.5C11.0966 103.5 4.09663 102 5.09663 96Z" fill="#3D4147" stroke="#2E3236"/>
<path d="M28.8574 145.054C27.6764 138.049 18.5237 131.432 14.095 129C8.92393 129 4.50371 129 1.55124 134.838C-1.40123 140.676 8.19006 156 14.095 156C19.9999 156 30.3336 153.811 28.8574 145.054Z" fill="#3D4147" stroke="#2E3236"/>
</svg>
